<svg width="449" height="521" viewBox="0 0 449 521" fill="none" xmlns="http://www.w3.org/2000/svg">
<rect width="448.477" height="521" rx="10" fill="white"/>
<path d="M189.891 258.02C191.103 258.02 192.341 258.02 193.605 258.02C196.754 257.958 199.66 257.756 202.374 257.445V198.279H189.891V258.02Z" fill="#654FB8"/>
<path d="M212.982 255.43C217.306 254.268 221.49 252.639 225.461 250.571V198.253H212.982V255.43Z" fill="#654FB8"/>
<path d="M236.07 244.148C240.214 241.47 244.037 239.139 248.554 237.973V198.279H236.07V244.148Z" fill="#654FB8"/>
<path d="M259.162 237.419C263.627 237.937 267.699 239.123 271.646 240.403V198.279H259.162V237.419Z" fill="#654FB8"/>
<path d="M130.739 217.139C131.464 219.125 132.25 221.066 133.096 222.962V198.279H126.502C127.133 204.716 128.556 211.051 130.739 217.139Z" fill="#654FB8"/>
<path d="M143.705 239.781C147.293 243.814 151.508 247.24 156.189 249.929V198.279H143.705V239.781Z" fill="#654FB8"/>
<path d="M166.797 254.575C170.867 255.86 175.045 256.771 179.281 257.295V198.279H166.797V254.575Z" fill="#654FB8"/>
<path d="M282.255 243.604C286.336 244.624 290.578 244.828 294.739 244.205V198.279H282.255V243.604Z" fill="#654FB8"/>
<path d="M312.567 128.846C309.06 121.78 304.736 115.149 299.685 109.09C278.473 83.9719 235.634 91.8041 219.141 104.77C202.648 117.735 201.855 135.808 187.709 140.512C173.562 145.215 162.565 136.192 143.705 147.588C130.941 155.301 125.575 173.633 126.093 191.985H324.673C324.772 190.488 324.854 189.022 324.911 187.603C325.873 167.285 321.624 147.059 312.567 128.846ZM144.772 167.018L142.394 165.769L140.017 167.018L140.472 164.371L138.545 162.496L141.203 162.107L142.394 159.698L143.586 162.107L146.243 162.496L144.316 164.371L144.772 167.018ZM199.053 172.244L195.624 176.694L194.194 171.255L188.926 169.364L193.635 166.329L193.806 160.734L198.141 164.272L203.518 162.708L201.493 167.929L204.642 172.555L199.053 172.244ZM225.575 137.699L225.129 140.931L222.834 138.611L219.623 139.18L221.13 136.29L219.576 133.41L222.798 133.928L225.062 131.576L225.58 134.798L228.512 136.228L225.575 137.699ZM237.706 187.525L235.116 186.158L232.526 187.525L233.044 184.63L230.936 182.558L233.847 182.133L235.147 179.502L236.447 182.133L239.359 182.558L237.25 184.63L237.706 187.525ZM273.774 102.423L272.412 101.708L271.05 102.423L271.309 100.905L270.211 99.8331L271.734 99.6104L272.412 98.2325L273.091 99.6104L274.614 99.8331L273.515 100.905L273.774 102.423ZM314.178 174.182L310.744 172.374L307.299 174.182L307.957 170.348L305.17 167.629L309.019 167.07L310.744 163.583L312.469 167.07L316.318 167.629L313.531 170.348L314.178 174.182Z" fill="#654FB8"/>
<path d="M305.347 240.532C305.942 240.221 306.543 239.89 307.155 239.532C311.791 236.834 315.251 231.98 317.83 226.018V198.279H305.347V240.532Z" fill="#654FB8"/>
<g opacity="0.7">
<path opacity="0.7" d="M189.891 258.02C191.103 258.02 192.341 258.02 193.605 258.02C196.754 257.958 199.66 257.756 202.374 257.445V198.279H189.891V258.02Z" fill="white"/>
<path opacity="0.7" d="M212.981 255.43C217.305 254.268 221.489 252.639 225.46 250.571V198.253H212.981V255.43Z" fill="white"/>
<path opacity="0.7" d="M236.069 244.148C240.213 241.47 244.036 239.139 248.553 237.973V198.279H236.069V244.148Z" fill="white"/>
<path opacity="0.7" d="M259.162 237.419C263.627 237.937 267.699 239.123 271.646 240.403V198.279H259.162V237.419Z" fill="white"/>
<path opacity="0.7" d="M130.739 217.139C131.464 219.125 132.25 221.066 133.096 222.962V198.279H126.502C127.133 204.716 128.556 211.051 130.739 217.139Z" fill="white"/>
<path opacity="0.7" d="M143.705 239.781C147.293 243.814 151.508 247.24 156.189 249.929V198.279H143.705V239.781Z" fill="white"/>
<path opacity="0.7" d="M166.797 254.575C170.867 255.86 175.045 256.771 179.281 257.295V198.279H166.797V254.575Z" fill="white"/>
<path opacity="0.7" d="M282.254 243.604C286.335 244.624 290.577 244.828 294.738 244.205V198.279H282.254V243.604Z" fill="white"/>
<path opacity="0.7" d="M312.567 128.846C309.06 121.78 304.736 115.149 299.685 109.09C278.473 83.9719 235.634 91.8041 219.141 104.77C202.648 117.735 201.855 135.808 187.709 140.512C173.562 145.215 162.565 136.192 143.705 147.588C130.941 155.301 125.575 173.633 126.093 191.985H324.673C324.772 190.488 324.854 189.022 324.911 187.603C325.873 167.285 321.624 147.059 312.567 128.846ZM144.772 167.018L142.394 165.769L140.017 167.018L140.472 164.371L138.545 162.496L141.203 162.107L142.394 159.698L143.586 162.107L146.243 162.496L144.316 164.371L144.772 167.018ZM199.053 172.244L195.624 176.694L194.194 171.255L188.926 169.364L193.635 166.329L193.806 160.734L198.141 164.272L203.518 162.708L201.493 167.929L204.642 172.555L199.053 172.244ZM225.575 137.699L225.129 140.931L222.834 138.611L219.623 139.18L221.13 136.29L219.576 133.41L222.798 133.928L225.062 131.576L225.58 134.798L228.512 136.228L225.575 137.699ZM237.706 187.525L235.116 186.158L232.526 187.525L233.044 184.63L230.936 182.558L233.847 182.133L235.147 179.502L236.447 182.133L239.359 182.558L237.25 184.63L237.706 187.525ZM273.774 102.423L272.412 101.708L271.05 102.423L271.309 100.905L270.211 99.8331L271.734 99.6104L272.412 98.2325L273.091 99.6104L274.614 99.8331L273.515 100.905L273.774 102.423ZM314.178 174.182L310.744 172.374L307.299 174.182L307.957 170.348L305.17 167.629L309.019 167.07L310.744 163.583L312.469 167.07L316.318 167.629L313.531 170.348L314.178 174.182Z" fill="white"/>
<path opacity="0.7" d="M305.347 240.532C305.942 240.221 306.543 239.89 307.155 239.532C311.791 236.834 315.251 231.98 317.83 226.018V198.279H305.347V240.532Z" fill="white"/>
</g>
<path d="M268.45 278.036C284.181 278.036 296.934 276.101 296.934 273.715C296.934 271.329 284.181 269.395 268.45 269.395C252.718 269.395 239.965 271.329 239.965 273.715C239.965 276.101 252.718 278.036 268.45 278.036Z" fill="#654FB8"/>
<path opacity="0.5" d="M268.45 278.036C284.181 278.036 296.934 276.101 296.934 273.715C296.934 271.329 284.181 269.395 268.45 269.395C252.718 269.395 239.965 271.329 239.965 273.715C239.965 276.101 252.718 278.036 268.45 278.036Z" fill="white"/>
<path d="M181.622 271.752C193.449 271.752 203.036 269.818 203.036 267.432C203.036 265.046 193.449 263.112 181.622 263.112C169.795 263.112 160.208 265.046 160.208 267.432C160.208 269.818 169.795 271.752 181.622 271.752Z" fill="#654FB8"/>
<path opacity="0.5" d="M181.622 271.752C193.449 271.752 203.036 269.818 203.036 267.432C203.036 265.046 193.449 263.112 181.622 263.112C169.795 263.112 160.208 265.046 160.208 267.432C160.208 269.818 169.795 271.752 181.622 271.752Z" fill="white"/>
<path d="M171.211 256.212L182.115 251.674C181.353 250.426 180.592 251.017 179.618 248.996C179.1 247.96 179.556 246.292 178.903 244.956C178.385 243.863 176.774 243.169 176.153 241.915C175.588 240.786 175.997 239.103 175.386 237.885C174.775 236.668 173.205 236.067 172.594 234.881C171.983 233.695 172.382 232.027 171.765 230.861C171.149 229.696 169.538 229.053 168.921 227.903C168.305 226.753 168.631 225.028 167.999 223.904C167.367 222.78 165.705 222.128 165.067 221.045C164.353 219.833 164.617 218.118 163.959 217.088C163.156 215.834 161.483 215.378 160.804 214.498C159.53 212.84 158.846 211.017 158.214 211.141C157.582 211.265 158.131 213.099 158.478 215.285C158.655 216.373 157.836 217.875 158.199 219.33C158.489 220.501 159.919 221.475 160.312 222.811C160.659 224.008 159.965 225.588 160.374 226.878C160.784 228.168 162.224 228.991 162.643 230.25C163.063 231.509 162.405 233.078 162.83 234.316C163.254 235.554 164.746 236.419 165.176 237.637C165.606 238.854 165 240.496 165.435 241.698C165.87 242.899 167.398 243.811 167.828 244.987C168.31 246.287 167.714 247.903 168.139 249.038C168.657 250.416 170.175 251.255 170.574 252.296C171.439 254.57 170.222 254.529 170.936 256.352L171.211 256.212Z" fill="#2E353A"/>
<path d="M159.467 214.813L175.68 253.762" stroke="white" stroke-width="0.18692" stroke-miterlimit="10"/>
<path d="M162.872 218.191L161.732 220.46L159.474 219.129" stroke="white" stroke-width="0.18692" stroke-miterlimit="10"/>
<path d="M165.688 224.966L164.553 227.24L162.295 225.909" stroke="white" stroke-width="0.18692" stroke-miterlimit="10"/>
<path d="M168.346 231.343L167.212 233.617L164.948 232.286" stroke="white" stroke-width="0.18692" stroke-miterlimit="10"/>
<path d="M171.506 238.927L170.366 241.201L168.107 239.869" stroke="white" stroke-width="0.18692" stroke-miterlimit="10"/>
<path d="M174.698 246.593L173.563 248.867L171.305 247.536" stroke="white" stroke-width="0.18692" stroke-miterlimit="10"/>
<path d="M169.978 253.203L187.766 252.638C187.357 250.473 185.974 250.897 185.694 247.536C185.549 245.837 187.051 243.687 186.844 241.459C186.673 239.626 184.803 237.802 184.596 235.704C184.41 233.814 185.886 231.659 185.673 229.618C185.466 227.691 183.57 225.894 183.348 223.894C183.125 221.895 184.57 219.75 184.332 217.787C184.094 215.824 182.161 214.052 181.902 212.089C181.643 210.126 183.032 207.883 182.742 205.966C182.441 203.936 180.462 202.231 180.152 200.361C179.794 198.289 181.084 196 180.706 194.207C180.245 192.006 178.116 190.468 177.65 188.851C176.748 185.837 176.754 182.9 175.795 182.739C174.837 182.578 174.63 185.448 173.962 188.686C173.625 190.312 171.662 192.011 171.403 194.239C171.19 196.041 172.682 198.175 172.516 200.263C172.366 202.138 170.548 203.993 170.444 206.023C170.336 207.94 171.926 209.996 171.838 211.996C171.75 213.995 169.994 215.844 169.931 217.818C169.869 219.792 171.485 221.801 171.46 223.749C171.434 225.697 169.683 227.686 169.652 229.608C169.621 231.638 171.289 233.632 171.268 235.518C171.268 237.59 169.548 239.569 169.543 241.397C169.543 243.609 171.221 245.598 171.226 247.287C171.226 250.944 169.538 250.24 169.569 253.187L169.978 253.203Z" fill="#2E353A"/>
<path d="M175.567 188.613L177.593 252.141" stroke="white" stroke-width="0.281599" stroke-miterlimit="10"/>
<path d="M178.555 195.186L175.737 197.776L173.267 194.694" stroke="white" stroke-width="0.281599" stroke-miterlimit="10"/>
<path d="M178.908 206.241L176.09 208.836L173.619 205.754" stroke="white" stroke-width="0.281599" stroke-miterlimit="10"/>
<path d="M179.239 216.642L176.421 219.232L173.95 216.15" stroke="white" stroke-width="0.281599" stroke-miterlimit="10"/>
<path d="M179.633 229.012L176.815 231.607L174.35 228.525" stroke="white" stroke-width="0.281599" stroke-miterlimit="10"/>
<path d="M180.032 241.517L177.214 244.112L174.743 241.03" stroke="white" stroke-width="0.281599" stroke-miterlimit="10"/>
<path d="M180.691 213.244C181.602 213.871 184.058 214.28 184.063 214.28C184.068 214.28 183.845 212.581 183.819 212.472C183.498 211.245 182.162 209.064 180.748 208.986C180.512 208.979 180.277 209.021 180.059 209.111C179.841 209.2 179.644 209.334 179.482 209.505C179.319 209.676 179.194 209.878 179.115 210.101C179.036 210.323 179.004 210.559 179.023 210.794C179.064 211.804 179.908 212.705 180.691 213.244Z" fill="#2E353A"/>
<path d="M205.311 218.574C205.311 218.574 206.072 217.02 206.108 216.932C206.518 215.736 206.626 213.177 205.471 212.327C205.279 212.192 205.06 212.098 204.828 212.053C204.597 212.007 204.359 212.011 204.129 212.064C203.9 212.117 203.684 212.217 203.495 212.359C203.307 212.501 203.151 212.68 203.037 212.887C202.519 213.746 202.726 214.959 203.078 215.839C203.518 216.87 205.311 218.574 205.311 218.574Z" fill="#2E353A"/>
<path d="M214.329 211.131C212.972 210.716 210.957 212.291 210.232 213.332C210.17 213.42 209.346 214.938 209.372 214.943H209.403C209.082 215.187 208.745 215.461 208.367 215.756C207.699 216.316 206.942 216.958 206.171 217.709C205.33 218.509 204.536 219.356 203.793 220.247C202.958 221.243 202.212 222.311 201.566 223.438V223.48C201.654 223.076 201.856 221.926 201.861 221.843C201.938 220.579 201.343 218.087 200.027 217.569C199.805 217.488 199.568 217.455 199.332 217.472C199.096 217.489 198.866 217.556 198.658 217.668C198.45 217.78 198.267 217.935 198.123 218.122C197.979 218.31 197.875 218.526 197.82 218.756C197.551 219.719 198.074 220.828 198.644 221.589C199.292 222.439 201.327 223.537 201.493 223.625C200.863 224.796 200.311 226.007 199.841 227.251C199.566 227.971 199.323 228.701 199.058 229.442C199.121 229.09 199.178 228.769 199.178 228.727C199.255 227.463 198.66 224.972 197.349 224.454C197.127 224.373 196.891 224.341 196.656 224.358C196.421 224.375 196.192 224.441 195.985 224.553C195.777 224.664 195.595 224.818 195.451 225.005C195.307 225.191 195.203 225.406 195.148 225.635C194.873 226.598 195.396 227.707 195.966 228.468C196.536 229.23 198.266 230.203 198.727 230.452L198.447 231.307C198.007 232.669 197.577 234.037 197.116 235.363C196.95 235.829 196.774 236.285 196.598 236.735C196.65 236.425 196.696 236.155 196.702 236.119C196.779 234.85 196.184 232.363 194.868 231.845C194.646 231.764 194.41 231.731 194.175 231.748C193.939 231.765 193.71 231.831 193.502 231.942C193.294 232.054 193.112 232.208 192.968 232.395C192.824 232.582 192.721 232.797 192.666 233.026C192.397 233.99 192.915 235.098 193.49 235.86C194.065 236.621 195.624 237.502 196.163 237.802C195.971 238.258 195.774 238.724 195.567 239.16C195.417 239.455 195.293 239.75 195.127 240.04C194.961 240.33 194.811 240.615 194.655 240.895C194.334 241.413 194.003 241.983 193.676 242.501C193.454 242.858 193.236 243.195 193.013 243.537C193.179 243.07 193.49 242.159 193.531 242.081C193.727 240.984 193.637 239.855 193.272 238.802C193.302 238.68 193.32 238.555 193.324 238.429C193.34 238.194 193.305 237.958 193.224 237.737C193.142 237.516 193.015 237.315 192.85 237.146C192.685 236.978 192.487 236.846 192.268 236.759C192.049 236.672 191.814 236.632 191.578 236.642C190.164 236.741 188.849 238.937 188.548 240.165C188.548 240.237 188.424 241.045 188.362 241.558C188.362 241.252 188.362 240.957 188.331 240.641C188.331 240.019 188.258 239.398 188.217 238.73C188.18 238.408 188.149 238.082 188.113 237.756C188.077 237.429 188.02 237.088 187.973 236.751C187.849 235.969 187.683 235.197 187.497 234.399C188.046 234.399 189.978 234.264 190.827 233.84C191.677 233.415 192.635 232.643 192.822 231.659C192.873 231.429 192.874 231.191 192.827 230.96C192.78 230.729 192.684 230.51 192.547 230.319C192.41 230.127 192.234 229.967 192.03 229.848C191.827 229.729 191.6 229.654 191.366 229.628C189.952 229.509 188.325 231.483 187.839 232.648C187.807 232.726 187.554 233.601 187.419 234.088C187.305 233.617 187.196 233.146 187.067 232.669C186.689 231.307 186.264 229.934 185.844 228.561L185.471 227.303C185.663 227.303 187.968 227.215 188.921 226.738C189.765 226.318 190.729 225.541 190.91 224.557C190.962 224.327 190.965 224.089 190.918 223.858C190.871 223.627 190.776 223.409 190.639 223.217C190.503 223.026 190.327 222.865 190.123 222.746C189.92 222.627 189.694 222.552 189.46 222.527C188.046 222.407 186.414 224.381 185.927 225.552C185.891 225.64 185.523 226.904 185.445 227.23C185.176 226.303 184.927 225.381 184.689 224.459C184.38 223.216 184.153 221.955 184.011 220.683C184.099 220.683 186.502 220.605 187.481 220.118C188.325 219.698 189.289 218.921 189.47 217.937C189.522 217.707 189.525 217.469 189.478 217.238C189.431 217.007 189.336 216.789 189.199 216.597C189.062 216.406 188.887 216.245 188.683 216.126C188.48 216.007 188.254 215.932 188.02 215.907C186.606 215.787 184.974 217.761 184.487 218.927C184.456 219.004 184.176 219.963 184.052 220.429H183.974C183.86 219.145 183.86 217.853 183.974 216.57C184.031 215.865 184.124 215.192 184.228 214.539C184.679 214.57 186.735 214.694 187.662 214.353C188.59 214.011 189.589 213.363 189.879 212.405C189.956 212.182 189.984 211.945 189.963 211.71C189.941 211.475 189.871 211.247 189.755 211.041C189.64 210.836 189.483 210.657 189.293 210.516C189.104 210.375 188.887 210.276 188.657 210.224C187.264 209.95 185.43 211.731 184.819 212.84C184.782 212.902 184.513 213.55 184.301 214.026C184.352 213.736 184.399 213.431 184.456 213.151C184.663 212.115 184.917 211.146 185.15 210.307C185.285 209.83 185.414 209.4 185.544 209.002C186 208.8 187.833 207.966 188.486 207.261C189.139 206.557 189.74 205.495 189.558 204.505C189.522 204.274 189.438 204.054 189.312 203.857C189.186 203.66 189.02 203.492 188.825 203.364C188.63 203.235 188.41 203.148 188.179 203.109C187.949 203.071 187.713 203.08 187.486 203.138C186.129 203.537 185.321 205.961 185.285 207.23C185.285 207.339 185.435 209.053 185.461 209.043C185.331 209.426 185.192 209.836 185.057 210.291C184.803 211.125 184.539 212.073 184.301 213.13C184.04 214.261 183.846 215.406 183.72 216.559C183.57 217.85 183.537 219.152 183.622 220.449C183.619 220.465 183.619 220.481 183.622 220.496C183.467 220.113 183.006 219.046 182.959 218.968C182.332 217.87 180.462 216.114 179.079 216.409C178.85 216.465 178.635 216.568 178.449 216.712C178.262 216.857 178.108 217.038 177.996 217.246C177.885 217.453 177.818 217.682 177.8 217.917C177.782 218.152 177.814 218.389 177.893 218.611C178.199 219.564 179.25 220.211 180.141 220.522C181.151 220.874 183.456 220.667 183.638 220.646C183.754 221.966 183.96 223.276 184.254 224.568C184.415 225.319 184.606 226.075 184.808 226.826C184.663 226.494 184.534 226.204 184.513 226.163C183.881 225.065 182.016 223.314 180.628 223.609C180.399 223.664 180.183 223.767 179.996 223.911C179.809 224.055 179.655 224.237 179.543 224.445C179.431 224.653 179.364 224.882 179.347 225.117C179.329 225.352 179.362 225.589 179.442 225.811C179.747 226.764 180.799 227.406 181.695 227.722C182.591 228.038 184.57 227.898 185.088 227.857C185.171 228.142 185.243 228.432 185.326 228.717C185.715 230.1 186.108 231.478 186.45 232.835C186.575 233.317 186.673 233.793 186.777 234.27C186.652 233.98 186.544 233.752 186.523 233.695C185.891 232.597 184.026 230.846 182.638 231.141C182.409 231.197 182.194 231.3 182.008 231.444C181.821 231.589 181.667 231.77 181.555 231.978C181.443 232.185 181.376 232.414 181.358 232.649C181.341 232.884 181.372 233.12 181.452 233.342C181.757 234.296 182.809 234.943 183.705 235.254C184.601 235.565 186.388 235.446 187.005 235.394C187.098 235.886 187.191 236.378 187.253 236.86C187.295 237.186 187.352 237.502 187.372 237.834C187.393 238.165 187.424 238.486 187.45 238.813C187.481 239.434 187.512 240.076 187.523 240.683C187.523 241.107 187.523 241.511 187.523 241.915C187.409 241.439 187.165 240.506 187.134 240.429C186.678 239.248 185.098 237.233 183.684 237.321C183.449 237.341 183.222 237.411 183.015 237.525C182.809 237.639 182.629 237.795 182.487 237.983C182.345 238.171 182.244 238.386 182.191 238.616C182.137 238.845 182.132 239.084 182.177 239.315C182.337 240.304 183.275 241.102 184.114 241.548C185.031 242.035 187.253 242.185 187.528 242.2C187.528 242.874 187.528 243.526 187.528 244.143C187.497 246.08 187.403 247.717 187.315 248.929L188.253 249.116C188.315 247.872 188.377 246.168 188.372 244.148C188.372 243.464 188.372 242.739 188.331 241.988C189.031 241.857 189.723 241.684 190.403 241.47C190.967 242.382 192.62 243.64 192.832 243.801C192.464 244.365 192.102 244.909 191.755 245.417C190.667 246.997 189.683 248.297 188.952 249.261L189.988 249.457C190.677 248.515 191.542 247.308 192.459 245.883C192.837 245.313 193.226 244.697 193.619 244.06C193.873 244.163 195.93 245.018 196.971 244.987C197.919 244.956 199.115 244.656 199.696 243.837C199.838 243.65 199.939 243.435 199.993 243.206C200.047 242.977 200.052 242.739 200.008 242.508C199.964 242.277 199.872 242.058 199.738 241.865C199.604 241.672 199.43 241.509 199.229 241.387C197.991 240.688 195.686 241.796 194.754 242.651C194.697 242.703 194.163 243.319 193.832 243.687C193.992 243.423 194.148 243.169 194.308 242.9C194.635 242.382 194.94 241.827 195.272 241.247L195.722 240.377C195.883 240.092 196.013 239.766 196.158 239.46C196.484 238.74 196.779 237.994 197.059 237.238C197.53 237.523 199.203 238.497 200.167 238.611C201.13 238.724 202.337 238.611 203.031 237.891C203.201 237.727 203.335 237.53 203.423 237.311C203.511 237.093 203.553 236.858 203.545 236.622C203.536 236.387 203.478 236.156 203.375 235.944C203.271 235.732 203.124 235.545 202.943 235.394C201.83 234.513 199.38 235.259 198.328 235.969C198.266 236.01 197.567 236.601 197.188 236.932C197.354 236.476 197.52 236.026 197.675 235.554C198.11 234.208 198.515 232.83 198.924 231.457C199.048 231.037 199.178 230.618 199.307 230.203C199.473 230.302 201.436 231.504 202.493 231.633C203.436 231.747 204.663 231.633 205.357 230.913C205.527 230.75 205.66 230.552 205.749 230.334C205.837 230.115 205.879 229.881 205.87 229.645C205.862 229.409 205.804 229.178 205.701 228.967C205.597 228.755 205.45 228.567 205.269 228.416C204.156 227.536 201.705 228.282 200.654 228.991C200.576 229.043 199.571 229.898 199.328 230.126C199.607 229.204 199.898 228.287 200.224 227.396C200.651 226.19 201.157 225.014 201.736 223.873C201.814 223.92 203.86 225.184 204.943 225.313C205.886 225.433 207.113 225.313 207.807 224.593C207.977 224.43 208.111 224.233 208.199 224.014C208.287 223.796 208.329 223.561 208.32 223.325C208.312 223.09 208.254 222.859 208.151 222.647C208.047 222.435 207.9 222.248 207.719 222.097C206.606 221.221 204.156 221.967 203.104 222.672C203.037 222.718 202.27 223.366 201.913 223.708L201.85 223.656C202.467 222.524 203.183 221.449 203.99 220.444C204.425 219.89 204.876 219.377 205.321 218.89C205.678 219.16 207.326 220.398 208.289 220.626C209.253 220.853 210.444 220.859 211.216 220.222C211.402 220.077 211.556 219.895 211.668 219.688C211.779 219.48 211.845 219.251 211.862 219.016C211.88 218.781 211.847 218.545 211.767 218.324C211.687 218.102 211.561 217.9 211.397 217.73C210.387 216.735 207.875 217.212 206.735 217.792C206.673 217.828 206.088 218.217 205.668 218.512C205.87 218.295 206.077 218.067 206.279 217.865C207.036 217.103 207.771 216.445 208.429 215.876C208.802 215.549 209.149 215.264 209.465 215.005C209.957 215.088 211.941 215.409 212.879 215.176C213.816 214.943 214.904 214.394 215.293 213.472C215.399 213.257 215.459 213.022 215.467 212.783C215.475 212.543 215.433 212.305 215.341 212.083C215.25 211.861 215.113 211.662 214.938 211.497C214.763 211.333 214.556 211.208 214.329 211.131Z" fill="#2E353A"/>
<path d="M201.515 248.717H162.96V253.819H201.515V248.717Z" fill="#2E353A"/>
<path d="M195.454 268.489H169.015L165.71 253.254H198.758L195.454 268.489Z" fill="#2E353A"/>
<path d="M163.287 171.514L162.898 208.261C162.898 208.261 161.344 209.043 157.034 209.043C152.725 209.043 151.171 208.261 151.171 208.261L152.725 193.405C152.725 193.405 147.26 192.234 147.26 190.68C147.26 189.126 159.376 146.132 159.376 146.132C159.376 146.132 165.633 157.046 163.287 171.514Z" fill="#654FB8" stroke="#2E353A" stroke-width="0.518" stroke-miterlimit="10"/>
<path d="M152.73 193.4L157.797 169.986" stroke="#2E353A" stroke-width="0.518" stroke-miterlimit="10"/>
<path d="M154.688 146.101C154.688 146.101 161.723 155.482 162.505 159.393C163.287 163.304 163.287 171.514 163.287 171.514C165.581 165.76 167.029 159.704 167.587 153.534C168.369 143.76 160.552 138.678 160.552 138.678L154.688 146.101Z" fill="#2E353A" stroke="#2E353A" stroke-width="0.518" stroke-miterlimit="10"/>
<path d="M286.876 171.514L287.265 208.261C287.265 208.261 288.819 209.043 293.129 209.043C297.438 209.043 298.992 208.261 298.992 208.261L297.438 193.405C297.438 193.405 302.903 192.234 302.903 190.68C302.903 189.126 290.782 146.132 290.782 146.132C290.782 146.132 284.53 157.046 286.876 171.514Z" fill="#654FB8" stroke="#2E353A" stroke-width="0.518" stroke-miterlimit="10"/>
<path d="M297.428 193.399L292.729 166.173" stroke="#2E353A" stroke-width="0.518" stroke-miterlimit="10"/>
<path d="M295.475 146.101C295.475 146.101 288.435 155.482 287.653 159.393C286.871 163.304 286.876 171.509 286.876 171.509C284.579 165.755 283.129 159.699 282.572 153.529C281.789 143.754 289.611 138.673 289.611 138.673L295.475 146.101Z" fill="#2E353A" stroke="#2E353A" stroke-width="0.518" stroke-miterlimit="10"/>
<path d="M295.419 146.101C274.11 133.499 249.809 126.851 225.053 126.851C200.298 126.851 175.996 133.499 154.688 146.101L142.349 125.236C141.464 123.754 142.298 121.61 144.24 120.543C168.936 106.737 196.756 99.489 225.048 99.489C253.34 99.489 281.161 106.737 305.856 120.543C307.794 121.625 308.633 123.754 307.747 125.236L295.419 146.101Z" fill="#654FB8"/>
<path d="M295.419 146.101C274.11 133.499 249.809 126.851 225.053 126.851C200.298 126.851 175.996 133.499 154.688 146.101L142.349 125.236C141.464 123.754 142.298 121.61 144.24 120.543C168.936 106.737 196.756 99.489 225.048 99.489C253.34 99.489 281.161 106.737 305.856 120.543C307.794 121.625 308.633 123.754 307.747 125.236L295.419 146.101Z" stroke="#2E353A" stroke-width="0.518" stroke-miterlimit="10"/>
<path d="M173.618 130.772C173.142 130.924 172.716 130.759 172.339 130.276L163.192 118.164C162.989 117.88 162.928 117.613 163.007 117.365C163.087 117.117 163.299 116.938 163.645 116.827C164.107 116.68 164.504 116.83 164.839 117.279L172.782 128.012L173.14 114.692C173.152 114.084 173.381 113.709 173.828 113.566C174.059 113.492 174.262 113.506 174.438 113.609C174.623 113.692 174.811 113.855 174.999 114.097L183.021 124.852L183.323 111.359C183.32 110.804 183.549 110.452 184.011 110.304C184.313 110.207 184.562 110.239 184.756 110.399C184.965 110.555 185.07 110.807 185.07 111.157L184.64 126.336C184.627 126.642 184.564 126.893 184.452 127.087C184.349 127.263 184.161 127.395 183.887 127.483C183.628 127.566 183.398 127.568 183.198 127.489C182.993 127.396 182.797 127.228 182.608 126.987L174.699 116.433L174.349 129.632C174.336 129.938 174.281 130.186 174.183 130.377C174.08 130.552 173.892 130.684 173.618 130.772Z" fill="#2E353A"/>
<path d="M192.538 125.035C191.871 125.178 191.465 124.916 191.322 124.249L188.391 110.567C188.248 109.899 188.51 109.494 189.177 109.351L197.453 107.578C197.972 107.467 198.286 107.663 198.394 108.167C198.505 108.686 198.301 109.002 197.782 109.113L190.285 110.719L191.448 116.148L198.478 114.641C198.997 114.53 199.311 114.726 199.419 115.231C199.53 115.75 199.326 116.065 198.807 116.176L191.777 117.683L192.988 123.333L200.485 121.727C201.004 121.616 201.318 121.812 201.426 122.316C201.537 122.836 201.333 123.151 200.814 123.262L192.538 125.035Z" fill="#2E353A"/>
<path d="M205.733 122.518C205.103 122.6 204.746 122.319 204.662 121.675L202.82 107.651C202.736 107.007 203 106.645 203.615 106.564C204.229 106.483 204.578 106.765 204.663 107.409L206.419 120.781L213.791 119.813C214.36 119.739 214.68 119.971 214.751 120.51C214.822 121.05 214.572 121.357 214.003 121.432L205.733 122.518Z" fill="#2E353A"/>
<path d="M224.397 120.96C222.824 121.017 221.466 120.732 220.323 120.107C219.18 119.481 218.284 118.567 217.635 117.364C217.002 116.16 216.654 114.711 216.594 113.017C216.534 111.338 216.777 109.875 217.323 108.629C217.884 107.383 218.712 106.406 219.807 105.701C220.903 104.995 222.237 104.614 223.81 104.558C224.748 104.525 225.645 104.629 226.502 104.871C227.358 105.113 228.106 105.472 228.744 105.949C229.007 106.121 229.158 106.328 229.197 106.569C229.251 106.809 229.221 107.03 229.107 107.231C228.993 107.416 228.823 107.544 228.599 107.612C228.389 107.665 228.144 107.598 227.865 107.411C226.76 106.588 225.444 106.203 223.916 106.258C222.116 106.322 220.76 106.939 219.848 108.107C218.936 109.276 218.517 110.888 218.59 112.945C218.664 115.017 219.198 116.603 220.192 117.704C221.185 118.804 222.582 119.322 224.381 119.257C225.909 119.203 227.209 118.717 228.282 117.8C228.548 117.609 228.787 117.532 229.001 117.57C229.229 117.607 229.399 117.715 229.512 117.893C229.639 118.07 229.692 118.272 229.67 118.5C229.648 118.728 229.526 118.937 229.306 119.127C228.675 119.694 227.941 120.137 227.105 120.455C226.268 120.757 225.365 120.926 224.397 120.96Z" fill="#2E353A"/>
<path d="M239.201 121.316C237.718 121.183 236.454 120.733 235.409 119.968C234.381 119.189 233.619 118.159 233.124 116.879C232.644 115.6 232.48 114.121 232.631 112.441C232.782 110.761 233.208 109.334 233.909 108.162C234.609 106.989 235.534 106.119 236.684 105.551C237.849 104.984 239.18 104.769 240.679 104.903C242.192 105.04 243.464 105.49 244.493 106.254C245.538 107.019 246.3 108.041 246.78 109.32C247.277 110.585 247.449 112.058 247.298 113.738C247.147 115.418 246.713 116.851 245.996 118.037C245.28 119.209 244.339 120.085 243.173 120.667C242.024 121.235 240.7 121.451 239.201 121.316ZM239.351 119.659C241.061 119.813 242.437 119.357 243.479 118.291C244.52 117.226 245.135 115.656 245.321 113.583C245.508 111.509 245.183 109.863 244.347 108.643C243.512 107.409 242.24 106.715 240.529 106.561C238.85 106.409 237.489 106.867 236.447 107.932C235.406 108.983 234.793 110.545 234.606 112.618C234.421 114.677 234.745 116.331 235.579 117.58C236.413 118.815 237.671 119.508 239.351 119.659Z" fill="#2E353A"/>
<path d="M250.769 122.721C250.21 122.586 250.002 122.225 250.144 121.636L253.55 107.536C253.692 106.947 254.042 106.721 254.601 106.856C254.837 106.913 255.008 107.008 255.116 107.143C255.242 107.267 255.337 107.454 255.401 107.703L258.515 119.852L266.809 110.459C266.98 110.266 267.143 110.142 267.296 110.086C267.454 110.015 267.657 110.009 267.908 110.07C268.452 110.201 268.653 110.561 268.511 111.15L265.105 125.25C264.963 125.839 264.612 126.065 264.053 125.93C263.494 125.795 263.286 125.434 263.428 124.845L266.189 113.415L258.936 121.588C258.787 121.755 258.643 121.868 258.504 121.928C258.383 121.976 258.22 121.976 258.014 121.926C257.808 121.876 257.657 121.793 257.561 121.676C257.464 121.56 257.393 121.402 257.348 121.204L254.554 110.628L251.799 122.036C251.656 122.624 251.313 122.853 250.769 122.721Z" fill="#2E353A"/>
<path d="M271.838 128.285C271.203 128.039 271.008 127.599 271.254 126.964L276.294 113.944C276.539 113.309 276.98 113.114 277.615 113.36L285.49 116.408C285.984 116.599 286.138 116.935 285.953 117.415C285.762 117.909 285.419 118.06 284.925 117.869L277.79 115.107L275.791 120.273L282.481 122.862C282.975 123.054 283.129 123.389 282.943 123.869C282.752 124.363 282.409 124.514 281.915 124.323L275.226 121.734L273.144 127.111L280.279 129.873C280.773 130.064 280.927 130.399 280.741 130.879C280.55 131.373 280.207 131.525 279.713 131.333L271.838 128.285Z" fill="#2E353A"/>
<path d="M269.916 170.271C269.916 170.271 263.327 165.402 260.162 163.019C256.997 160.636 251.574 153.798 250.217 150.794C249.545 149.247 248.792 147.738 247.958 146.272C247.958 146.272 248.585 143.252 248.585 142.506C248.585 141.76 247.979 140.776 247.596 140.144C247.404 139.828 246.042 138.02 246.042 139.398C246.042 140.475 246.689 141.014 246.689 141.662C245.817 141.18 245.099 140.462 244.617 139.59C243.861 138.191 243.54 137.647 243.105 137.973C242.333 138.554 243.322 140.045 243.322 140.045C243.322 140.045 243.105 137.973 242.027 138.315C241.406 138.502 242.245 140.258 242.675 141.014C243.105 141.77 242.457 140.496 242.566 141.77C242.644 142.718 243.726 145.049 244.726 146.194C245.089 146.614 245.933 146.484 246.021 146.629C246.342 147.147 249.797 155.156 252.17 159.149C254.542 163.143 255.951 164.329 257.894 166.272C259.836 168.214 262.426 171.561 264.69 173.177C266.953 174.793 268.145 174.151 269.44 173.068C270.735 171.985 270.926 171.369 269.916 170.271Z" fill="white" stroke="#2E353A" stroke-width="0.518" stroke-linecap="round" stroke-linejoin="round"/>
<path d="M246.652 141.656C246.652 141.656 245.678 143.495 246.134 144.246" stroke="#2E353A" stroke-width="0.518" stroke-linecap="round" stroke-linejoin="round"/>
<path d="M243.308 140.04L244.173 141.656" stroke="#2E353A" stroke-width="0.518" stroke-linecap="round" stroke-linejoin="round"/>
<path d="M244.276 145.329C243.532 144.386 242.882 143.373 242.333 142.304C241.904 141.227 242.23 138.854 242.877 139.284C243.525 139.714 243.307 142.092 243.307 142.092L244.602 143.599" fill="white"/>
<path d="M244.276 145.329C243.532 144.386 242.882 143.373 242.333 142.304C241.904 141.227 242.23 138.854 242.877 139.284C243.525 139.714 243.307 142.092 243.307 142.092L244.602 143.599" stroke="#2E353A" stroke-width="0.518" stroke-linecap="round" stroke-linejoin="round"/>
<path d="M271.309 156.813C271.309 156.813 267.999 155.606 268.6 151.39C269.201 147.173 272.817 149.281 272.817 149.281C272.817 149.281 269.191 144.459 276.583 143.407C283.974 142.356 289.393 148.981 291.201 156.357C293.008 163.734 281.555 164.49 283.213 170.069C284.871 175.648 291.351 181.983 290.294 189.654C289.237 197.326 278.696 201.568 273.874 197.487C269.051 193.405 267.093 187.095 269.823 181.356C272.553 175.617 274.039 168.852 274.79 165.816C275.541 162.781 271.309 156.813 271.309 156.813Z" fill="#2E353A" stroke="#2E353A" stroke-width="0.518" stroke-linecap="round" stroke-linejoin="round"/>
<path d="M283.162 162.449C278.63 160.636 276.299 153.255 276.299 149.111C276.299 144.967 282.126 147.039 282.126 147.039C282.126 147.039 276.428 148.075 279.277 153.643C282.126 159.212 287.177 160.895 289.767 159.212" stroke="white" stroke-width="0.3885" stroke-linecap="round" stroke-linejoin="round"/>
<path d="M282.256 166.464C282.256 166.464 278.241 167.759 279.407 172.809C280.572 177.859 289.508 184.205 286.918 190.68C284.328 197.155 279.795 199.745 274.356 197.802" stroke="white" stroke-width="0.3885" stroke-linecap="round" stroke-linejoin="round"/>
<path d="M280.312 167.499C280.312 167.499 275.909 169.312 275.391 175.787C274.873 182.262 280.183 187.831 277.722 191.068C275.262 194.306 271.247 193.917 269.952 191.975" stroke="white" stroke-width="0.3885" stroke-linecap="round" stroke-linejoin="round"/>
<path d="M270.258 163.894C270.258 163.894 270.709 165.552 269.222 168.116C267.736 170.68 266.964 171.276 266.964 171.276L272.387 170.825L275.853 164.495C275.853 164.495 270.559 164.951 270.258 163.894Z" fill="white" stroke="#2E353A" stroke-width="0.518" stroke-linecap="round" stroke-linejoin="round"/>
<path d="M275.681 149.882C275.681 149.882 270.408 154.705 269.351 158.921C268.294 163.138 269.652 165.852 271.615 165.852C273.578 165.852 277.639 164.195 277.639 164.195C277.639 164.195 278.846 165.231 280.048 164.65C280.392 164.484 280.685 164.229 280.897 163.911C281.11 163.593 281.233 163.224 281.255 162.843C281.255 162.843 272.967 154.705 275.681 149.882Z" fill="white" stroke="#2E353A" stroke-width="0.518" stroke-linecap="round" stroke-linejoin="round"/>
<path d="M273.449 157.119C273.086 157.58 272.651 157.839 272.47 157.699C272.288 157.559 272.433 157.072 272.796 156.611C273.159 156.15 273.594 155.891 273.77 156.031C273.946 156.171 273.806 156.658 273.449 157.119Z" fill="#2E353A"/>
<path d="M275.957 159.745C275.599 160.211 275.159 160.47 274.978 160.33C274.796 160.19 274.946 159.704 275.304 159.243C275.661 158.782 276.102 158.517 276.283 158.657C276.464 158.797 276.314 159.284 275.957 159.745Z" fill="#2E353A"/>
<path d="M273.211 158.103C272.596 158.32 272.004 158.598 271.444 158.932C270.973 159.284 271.797 159.755 271.797 159.755" stroke="#2E353A" stroke-width="0.3885" stroke-linecap="round" stroke-linejoin="round"/>
<path d="M270.383 160.931C270.467 161.314 270.674 161.66 270.973 161.915C271.271 162.17 271.644 162.321 272.035 162.346C272.775 162.456 273.53 162.288 274.154 161.874" stroke="#2E353A" stroke-width="0.3885" stroke-linecap="round" stroke-linejoin="round"/>
<path d="M273.33 154.099C273.705 154.04 274.087 154.131 274.395 154.352C274.704 154.573 274.913 154.906 274.977 155.28" stroke="#2E353A" stroke-width="0.3885" stroke-linecap="round" stroke-linejoin="round"/>
<path d="M276.04 157.046C276.04 157.046 278.04 157.751 277.454 159.284" stroke="#2E353A" stroke-width="0.3885" stroke-linecap="round" stroke-linejoin="round"/>
<path d="M256.272 266.924C256.272 266.924 253.485 268.784 252.553 269.245C251.621 269.706 247.679 270.405 247.56 271.452C247.44 272.498 249.533 273.078 251.859 273.078C254.185 273.078 256.966 273.078 258.36 273.311C259.753 273.544 260.686 274.006 261.266 272.498C261.846 270.991 260.914 267.038 260.914 267.038C260.914 267.038 258.479 267.971 256.272 266.924Z" fill="#654FB8" stroke="#2E353A" stroke-width="0.518" stroke-linecap="round" stroke-linejoin="round"/>
<path d="M257.313 225.583C257.313 225.583 255.691 233.13 255.691 235.57C255.691 238.01 256.619 253.803 256.852 258.212C256.965 261.128 256.77 264.049 256.272 266.924C256.272 266.924 258.245 267.852 259.058 267.852C259.872 267.852 260.913 267.038 260.913 267.038C260.913 267.038 263.239 256.818 263.239 251.364C263.239 245.909 263.7 242.77 263.239 239.284C262.778 235.798 261.167 229.416 261.726 227.09C262.286 224.764 259.058 222.097 257.313 225.583Z" fill="#2E353A" stroke="#2E353A" stroke-width="0.518" stroke-linecap="round" stroke-linejoin="round"/>
<path d="M257.297 192.234C257.297 192.234 255.318 205.629 255.318 215.57C255.318 225.51 259.54 237.419 260.592 239.077C261.643 240.734 270.838 257.305 272.946 260.77C274.438 263.398 275.673 266.163 276.634 269.027C277.37 269.254 278.126 269.405 278.893 269.478C279.649 269.478 280.7 268.577 280.7 268.577C280.7 268.577 275.81 249.468 273.852 244.5C271.894 239.532 267.844 235.611 266.792 233.674C265.741 231.737 265.285 224.179 265.285 224.179C265.285 224.179 271.459 214.389 272.537 209.116C273.614 203.842 270.708 197.932 269.501 195.86C268.712 194.447 268.008 192.989 267.393 191.493C267.393 191.493 261.068 195.233 257.297 192.234Z" fill="#2E353A" stroke="#2E353A" stroke-width="0.518" stroke-linecap="round" stroke-linejoin="round"/>
<path d="M268.751 186.795C268.751 186.795 272.517 175.197 273.413 172.483C274.309 169.768 272.957 168.717 268.891 169.167C264.824 169.618 257.743 172.793 257.443 176.248C257.142 179.704 258.479 181.672 258.479 183.33C258.479 184.987 256.096 192.234 257.909 193.726C259.722 195.218 265.441 194.762 267.098 192.69C268.756 190.618 268.751 186.795 268.751 186.795Z" fill="#654FB8" stroke="#2E353A" stroke-width="0.518" stroke-linecap="round" stroke-linejoin="round"/>
<path d="M269.917 170.271C270.135 172.166 269.669 174.077 268.601 175.658C266.793 178.517 262.727 177.466 263.028 174.301C263.328 171.136 267.161 168.51 269.917 170.271Z" fill="white" stroke="#2E353A" stroke-width="0.518" stroke-linecap="round" stroke-linejoin="round"/>
<path d="M267.347 174.757C267.837 174.678 268.304 174.492 268.713 174.211C269.121 173.929 269.462 173.56 269.71 173.13C269.959 172.701 270.108 172.221 270.147 171.726C270.186 171.232 270.115 170.734 269.937 170.271C269.825 169.951 269.63 169.667 269.373 169.447C269.116 169.227 268.804 169.078 268.471 169.017C265.881 168.567 254.61 169.468 251.745 169.167C248.881 168.867 238.039 162.237 235.169 159.678C232.299 157.119 231.253 155.762 231.253 154.705C231.253 153.648 230.497 151.239 229.896 150.488C229.295 149.737 228.238 148.225 228.238 148.225C228.238 148.225 227.202 148.225 227.337 148.831C227.582 149.507 227.884 150.162 228.238 150.789C228.238 150.789 225.223 148.981 224.472 148.199C224.397 148.095 224.301 148.007 224.189 147.943C224.078 147.878 223.955 147.837 223.827 147.823C223.699 147.809 223.57 147.822 223.447 147.861C223.325 147.899 223.212 147.963 223.115 148.049L224.773 149.856C224.773 149.856 224.623 151.063 225.809 153.021C226.706 154.359 227.828 155.531 229.124 156.487C229.124 156.487 235.148 163.568 239.671 167.484C244.193 171.4 248.404 173.814 252.175 174.415C255.501 174.974 260.691 175.974 267.347 174.757Z" fill="white" stroke="#2E353A" stroke-width="0.518" stroke-linecap="round" stroke-linejoin="round"/>
<path d="M276.655 269.028C276.655 269.028 274.272 271.571 272.645 272.612C271.019 273.653 268.926 274.358 269.278 275.285C269.631 276.212 273.94 276.098 276.012 275.979C278.084 275.86 282.28 273.907 282.98 273.425C283.679 272.944 280.721 268.577 280.721 268.577C280.721 268.577 278.457 269.851 276.655 269.028Z" fill="#654FB8" stroke="#2E353A" stroke-width="0.518" stroke-linecap="round" stroke-linejoin="round"/>
<path d="M276.039 275.979C278.111 275.865 282.307 273.907 283.006 273.425C283.198 273.296 283.105 272.861 282.877 272.307C280.518 273.476 278.028 274.359 275.459 274.938C272.061 275.663 270.134 275.321 269.269 275.047C269.266 275.128 269.278 275.209 269.305 275.285C269.626 276.212 273.921 276.098 276.039 275.979Z" fill="#2E353A" stroke="#2E353A" stroke-width="0.518" stroke-linecap="round" stroke-linejoin="round"/>
<path d="M261.266 272.524C261.369 272.216 261.427 271.895 261.437 271.571C260.515 272.317 259.846 271.965 258.36 272.058C256.5 272.177 255.806 272.177 251.973 272.177C250.472 272.214 248.978 271.966 247.57 271.447C247.572 271.457 247.572 271.467 247.57 271.478C247.456 272.514 249.543 273.104 251.869 273.104C254.195 273.104 256.977 273.104 258.37 273.337C259.764 273.57 260.686 274.005 261.266 272.524Z" fill="#2E353A" stroke="#2E353A" stroke-width="0.518" stroke-linecap="round" stroke-linejoin="round"/>
<path d="M265.285 224.158C265.285 224.158 265.715 216.989 266.508 215.57C267.3 214.151 269.186 212.26 270.444 211.156" stroke="white" stroke-width="0.3885" stroke-linecap="round" stroke-linejoin="round"/>
<path d="M77.8464 341.92V341H83.8464V341.92L82.1664 342.28L85.0264 351.36L87.9064 341H89.6064L92.9464 351.32L95.3064 342.36L93.6864 341.92V341H98.5264V341.92L96.6864 342.36L93.2864 355.14H91.7064L88.2264 344.7L85.2864 355.14H83.7464L79.5864 342.34L77.8464 341.92ZM98.3205 349.88C98.3205 348.413 98.7405 347.187 99.5805 346.2C100.42 345.2 101.58 344.7 103.06 344.7C103.834 344.7 104.507 344.847 105.08 345.14C105.667 345.42 106.127 345.813 106.46 346.32C106.807 346.827 107.06 347.393 107.22 348.02C107.38 348.647 107.46 349.327 107.46 350.06H100.7C100.794 351.153 101.16 352.087 101.8 352.86C102.44 353.62 103.314 354 104.42 354C105.127 354 105.894 353.847 106.72 353.54L107.06 354.48C105.82 355.027 104.64 355.3 103.52 355.3C101.907 355.3 100.634 354.773 99.7005 353.72C98.7805 352.667 98.3205 351.387 98.3205 349.88ZM100.7 349.08L104.98 348.76C104.94 347.96 104.754 347.267 104.42 346.68C104.087 346.093 103.614 345.8 103 345.8C102.334 345.8 101.787 346.113 101.36 346.74C100.947 347.367 100.727 348.147 100.7 349.08ZM108.623 355V354.14L110.323 353.74V340.62H108.623V339.76L111.823 339H112.723V353.74L114.423 354.14V355H108.623ZM115.606 350.04C115.606 348.453 116.086 347.167 117.046 346.18C118.019 345.193 119.193 344.7 120.566 344.7C121.753 344.7 122.819 344.98 123.766 345.54C123.753 345.993 123.619 346.413 123.366 346.8C123.113 347.173 122.826 347.447 122.506 347.62L120.586 345.8H120.466C119.786 345.92 119.213 346.353 118.746 347.1C118.279 347.833 118.046 348.8 118.046 350C118.046 351.373 118.359 352.38 118.986 353.02C119.626 353.66 120.466 353.98 121.506 353.98C122.319 353.98 123.066 353.793 123.746 353.42L124.086 354.4C122.966 355 121.826 355.3 120.666 355.3C119.226 355.3 118.019 354.84 117.046 353.92C116.086 352.987 115.606 351.693 115.606 350.04ZM130.315 344.7C131.782 344.7 132.995 345.2 133.955 346.2C134.915 347.187 135.395 348.447 135.395 349.98C135.395 351.527 134.915 352.8 133.955 353.8C132.995 354.8 131.782 355.3 130.315 355.3C128.848 355.3 127.628 354.8 126.655 353.8C125.695 352.8 125.215 351.527 125.215 349.98C125.215 348.447 125.695 347.187 126.655 346.2C127.628 345.2 128.848 344.7 130.315 344.7ZM130.315 345.8C129.488 345.8 128.848 346.18 128.395 346.94C127.955 347.7 127.735 348.713 127.735 349.98C127.735 351.247 127.955 352.267 128.395 353.04C128.848 353.813 129.488 354.2 130.315 354.2C131.142 354.2 131.775 353.813 132.215 353.04C132.668 352.253 132.895 351.233 132.895 349.98C132.895 348.713 132.668 347.7 132.215 346.94C131.775 346.18 131.142 345.8 130.315 345.8ZM136.95 355V354.14L138.65 353.74V346.62H136.95V345.76L140.15 345H141.03V345.9C142.057 345.1 143.11 344.7 144.19 344.7C145.564 344.7 146.537 345.207 147.11 346.22C148.284 345.207 149.477 344.7 150.69 344.7C151.717 344.7 152.524 344.993 153.11 345.58C153.71 346.167 154.01 346.92 154.01 347.84V353.74L155.71 354.14V355H150.33V354.14L151.63 353.74V348.1C151.63 347.473 151.477 346.993 151.17 346.66C150.877 346.327 150.457 346.16 149.91 346.16C149.124 346.16 148.304 346.467 147.45 347.08C147.504 347.4 147.53 347.653 147.53 347.84V353.74L148.83 354.14V355H143.83V354.14L145.13 353.74V348.1C145.13 347.473 144.977 346.993 144.67 346.66C144.377 346.327 143.957 346.16 143.41 346.16C142.664 346.16 141.87 346.44 141.03 347V353.74L142.33 354.14V355H136.95ZM156.797 349.88C156.797 348.413 157.217 347.187 158.057 346.2C158.897 345.2 160.057 344.7 161.537 344.7C162.31 344.7 162.984 344.847 163.557 345.14C164.144 345.42 164.604 345.813 164.937 346.32C165.284 346.827 165.537 347.393 165.697 348.02C165.857 348.647 165.937 349.327 165.937 350.06H159.177C159.27 351.153 159.637 352.087 160.277 352.86C160.917 353.62 161.79 354 162.897 354C163.604 354 164.37 353.847 165.197 353.54L165.537 354.48C164.297 355.027 163.117 355.3 161.997 355.3C160.384 355.3 159.11 354.773 158.177 353.72C157.257 352.667 156.797 351.387 156.797 349.88ZM159.177 349.08L163.457 348.76C163.417 347.96 163.23 347.267 162.897 346.68C162.564 346.093 162.09 345.8 161.477 345.8C160.81 345.8 160.264 346.113 159.837 346.74C159.424 347.367 159.204 348.147 159.177 349.08ZM179.029 340.7C180.109 340.7 181.062 340.88 181.889 341.24C182.715 341.6 183.415 342.1 183.989 342.74C184.562 343.38 184.995 344.147 185.289 345.04C185.582 345.933 185.729 346.913 185.729 347.98C185.729 349.06 185.582 350.047 185.289 350.94C185.009 351.833 184.582 352.607 184.009 353.26C183.449 353.9 182.749 354.4 181.909 354.76C181.082 355.12 180.122 355.3 179.029 355.3C177.869 355.3 176.862 355.107 176.009 354.72C175.169 354.333 174.475 353.813 173.929 353.16C173.382 352.493 172.975 351.713 172.709 350.82C172.455 349.927 172.329 348.967 172.329 347.94C172.329 346.94 172.462 346.007 172.729 345.14C172.995 344.26 173.402 343.493 173.949 342.84C174.495 342.173 175.189 341.653 176.029 341.28C176.882 340.893 177.882 340.7 179.029 340.7ZM179.029 341.88C177.669 341.88 176.635 342.453 175.929 343.6C175.235 344.733 174.889 346.2 174.889 348C174.889 349.907 175.255 351.407 175.989 352.5C176.735 353.58 177.749 354.12 179.029 354.12C180.309 354.12 181.315 353.58 182.049 352.5C182.795 351.407 183.169 349.907 183.169 348C183.169 346.2 182.815 344.733 182.109 343.6C181.415 342.453 180.389 341.88 179.029 341.88ZM187.458 355V354.14L189.158 353.74V346.62H187.458V345.76L190.658 345H191.558V345.96C192.572 345.12 193.645 344.7 194.778 344.7C195.818 344.7 196.638 344.993 197.238 345.58C197.838 346.167 198.138 346.92 198.138 347.84V353.74L199.838 354.14V355H194.458V354.14L195.758 353.74V348.2C195.758 346.84 195.178 346.16 194.018 346.16C193.232 346.16 192.412 346.467 191.558 347.08V353.74L192.858 354.14V355H187.458ZM199.858 340.62V339.76L203.058 339H203.938V345.64C204.805 345.013 205.751 344.7 206.778 344.7C208.018 344.7 209.045 345.127 209.858 345.98C210.671 346.833 211.078 348.047 211.078 349.62C211.078 351.353 210.518 352.733 209.398 353.76C208.291 354.787 206.925 355.3 205.298 355.3C203.951 355.3 202.705 354.96 201.558 354.28V340.62H199.858ZM203.938 354.04C204.311 354.133 204.705 354.18 205.118 354.18C206.145 354.18 206.978 353.8 207.618 353.04C208.271 352.267 208.598 351.153 208.598 349.7C208.598 348.54 208.345 347.667 207.838 347.08C207.331 346.493 206.678 346.2 205.878 346.2C205.305 346.2 204.658 346.373 203.938 346.72V354.04ZM217.874 344.7C219.34 344.7 220.554 345.2 221.514 346.2C222.474 347.187 222.954 348.447 222.954 349.98C222.954 351.527 222.474 352.8 221.514 353.8C220.554 354.8 219.34 355.3 217.874 355.3C216.407 355.3 215.187 354.8 214.214 353.8C213.254 352.8 212.774 351.527 212.774 349.98C212.774 348.447 213.254 347.187 214.214 346.2C215.187 345.2 216.407 344.7 217.874 344.7ZM217.874 345.8C217.047 345.8 216.407 346.18 215.954 346.94C215.514 347.7 215.294 348.713 215.294 349.98C215.294 351.247 215.514 352.267 215.954 353.04C216.407 353.813 217.047 354.2 217.874 354.2C218.7 354.2 219.334 353.813 219.774 353.04C220.227 352.253 220.454 351.233 220.454 349.98C220.454 348.713 220.227 347.7 219.774 346.94C219.334 346.18 218.7 345.8 217.874 345.8ZM224.489 352.52C224.489 350.213 226.536 349.06 230.629 349.06V348.36C230.629 347.2 230.462 346.467 230.129 346.16C229.809 345.84 229.302 345.68 228.609 345.68L226.269 347.68C225.949 347.48 225.676 347.2 225.449 346.84C225.236 346.467 225.122 346.073 225.109 345.66C225.669 345.353 226.282 345.12 226.949 344.96C227.616 344.787 228.276 344.7 228.929 344.7C231.662 344.7 233.029 345.847 233.029 348.14V353.7H234.589V354.36C234.282 354.653 233.942 354.88 233.569 355.04C233.196 355.213 232.829 355.3 232.469 355.3C231.682 355.3 231.102 354.96 230.729 354.28C229.836 354.96 228.829 355.3 227.709 355.3C226.829 355.3 226.069 355.067 225.429 354.6C224.802 354.133 224.489 353.44 224.489 352.52ZM227.009 352.44C227.009 352.933 227.169 353.3 227.489 353.54C227.822 353.78 228.242 353.9 228.749 353.9C229.482 353.9 230.109 353.673 230.629 353.22V350.08C229.429 350.08 228.522 350.3 227.909 350.74C227.309 351.167 227.009 351.733 227.009 352.44ZM235.544 355V354.14L237.244 353.74V346.62H235.544V345.76L238.744 345H239.624V346.24C240.704 345.213 241.958 344.7 243.384 344.7C243.464 344.953 243.504 345.233 243.504 345.54C243.504 346.033 243.444 346.473 243.324 346.86L240.784 346.64C240.384 346.827 239.998 347.053 239.624 347.32V353.74L241.724 354.14V355H235.544ZM244.512 350.36C244.512 348.56 245.066 347.167 246.172 346.18C247.279 345.193 248.619 344.7 250.192 344.7C250.752 344.7 251.239 344.76 251.652 344.88V340.62H249.952V339.76L253.152 339H254.052V353.7H255.612V354.36L255.292 354.62C255.159 354.727 254.906 354.867 254.532 355.04C254.172 355.213 253.819 355.3 253.472 355.3C253.326 355.3 253.179 355.28 253.032 355.24C252.899 355.213 252.779 355.173 252.672 355.12C252.566 355.067 252.466 355.007 252.372 354.94C252.279 354.86 252.199 354.787 252.132 354.72C252.079 354.653 252.019 354.58 251.952 354.5C251.899 354.42 251.859 354.353 251.832 354.3C251.806 354.247 251.772 354.187 251.732 354.12L251.692 354.04C250.892 354.88 249.906 355.3 248.732 355.3C247.572 355.3 246.579 354.88 245.752 354.04C244.926 353.187 244.512 351.96 244.512 350.36ZM246.972 350.28C246.972 351.427 247.226 352.3 247.732 352.9C248.252 353.5 248.866 353.8 249.572 353.8C250.319 353.8 251.012 353.553 251.652 353.06V346C251.239 345.867 250.812 345.8 250.372 345.8C249.359 345.8 248.539 346.18 247.912 346.94C247.286 347.7 246.972 348.813 246.972 350.28ZM256.376 357.8C257.176 356.96 257.776 356.04 258.176 355.04L256.856 354.02C256.856 353.58 257.003 353.22 257.296 352.94C257.603 352.647 257.943 352.5 258.316 352.5C258.783 352.5 259.149 352.64 259.416 352.92C259.683 353.2 259.816 353.613 259.816 354.16C259.816 354.827 259.516 355.6 258.916 356.48C258.316 357.36 257.716 358.02 257.116 358.46L256.376 357.8ZM265.831 341.92V341H271.971V341.92L270.131 342.36V349.76C270.131 351.093 270.457 352.093 271.111 352.76C271.777 353.427 272.671 353.76 273.791 353.76C274.897 353.76 275.791 353.427 276.471 352.76C277.151 352.08 277.491 351.08 277.491 349.76V342.36L275.631 341.92V341H280.751V341.92L278.911 342.36V349.76C278.911 350.64 278.771 351.427 278.491 352.12C278.224 352.813 277.844 353.393 277.351 353.86C276.857 354.327 276.264 354.687 275.571 354.94C274.891 355.18 274.144 355.3 273.331 355.3C272.504 355.3 271.744 355.18 271.051 354.94C270.357 354.7 269.757 354.347 269.251 353.88C268.757 353.4 268.371 352.82 268.091 352.14C267.811 351.447 267.671 350.653 267.671 349.76V342.36L265.831 341.92ZM281.546 354.84V351.98H282.466L283.226 354.08C283.693 354.16 284.213 354.2 284.786 354.2C285.64 354.2 286.24 354.093 286.586 353.88C286.946 353.653 287.126 353.273 287.126 352.74C287.126 352.327 286.933 351.987 286.546 351.72C286.16 351.44 285.493 351.113 284.546 350.74C283.653 350.367 282.96 349.927 282.466 349.42C281.973 348.9 281.726 348.247 281.726 347.46C281.726 346.567 282.1 345.887 282.846 345.42C283.606 344.94 284.593 344.7 285.806 344.7C286.86 344.7 287.813 344.827 288.666 345.08V347.8H287.826L287.166 345.92C286.78 345.813 286.326 345.76 285.806 345.76C285.086 345.76 284.58 345.873 284.286 346.1C284.006 346.313 283.866 346.64 283.866 347.08C283.866 347.333 283.96 347.56 284.146 347.76C284.333 347.96 284.54 348.127 284.766 348.26C285.006 348.38 285.386 348.553 285.906 348.78C287.12 349.287 287.986 349.8 288.506 350.32C289.04 350.827 289.306 351.487 289.306 352.3C289.306 353.273 288.913 354.02 288.126 354.54C287.34 355.047 286.313 355.3 285.046 355.3C283.793 355.3 282.626 355.147 281.546 354.84ZM290.977 349.88C290.977 348.413 291.397 347.187 292.237 346.2C293.077 345.2 294.237 344.7 295.717 344.7C296.49 344.7 297.163 344.847 297.737 345.14C298.323 345.42 298.783 345.813 299.117 346.32C299.463 346.827 299.717 347.393 299.877 348.02C300.037 348.647 300.117 349.327 300.117 350.06H293.357C293.45 351.153 293.817 352.087 294.457 352.86C295.097 353.62 295.97 354 297.077 354C297.783 354 298.55 353.847 299.377 353.54L299.717 354.48C298.477 355.027 297.297 355.3 296.177 355.3C294.563 355.3 293.29 354.773 292.357 353.72C291.437 352.667 290.977 351.387 290.977 349.88ZM293.357 349.08L297.637 348.76C297.597 347.96 297.41 347.267 297.077 346.68C296.743 346.093 296.27 345.8 295.657 345.8C294.99 345.8 294.443 346.113 294.017 346.74C293.603 347.367 293.383 348.147 293.357 349.08ZM301.579 355V354.14L303.279 353.74V346.62H301.579V345.76L304.779 345H305.659V346.24C306.739 345.213 307.993 344.7 309.419 344.7C309.499 344.953 309.539 345.233 309.539 345.54C309.539 346.033 309.479 346.473 309.359 346.86L306.819 346.64C306.419 346.827 306.033 347.053 305.659 347.32V353.74L307.759 354.14V355H301.579ZM310.622 355V354.14L312.322 353.74V346.62H310.622V345.76L313.822 345H314.722V345.96C315.736 345.12 316.809 344.7 317.942 344.7C318.982 344.7 319.802 344.993 320.402 345.58C321.002 346.167 321.302 346.92 321.302 347.84V353.74L323.002 354.14V355H317.622V354.14L318.922 353.74V348.2C318.922 346.84 318.342 346.16 317.182 346.16C316.396 346.16 315.576 346.467 314.722 347.08V353.74L316.022 354.14V355H310.622ZM323.942 352.52C323.942 350.213 325.989 349.06 330.082 349.06V348.36C330.082 347.2 329.916 346.467 329.582 346.16C329.262 345.84 328.756 345.68 328.062 345.68L325.722 347.68C325.402 347.48 325.129 347.2 324.902 346.84C324.689 346.467 324.576 346.073 324.562 345.66C325.122 345.353 325.736 345.12 326.402 344.96C327.069 344.787 327.729 344.7 328.382 344.7C331.116 344.7 332.482 345.847 332.482 348.14V353.7H334.042V354.36C333.736 354.653 333.396 354.88 333.022 355.04C332.649 355.213 332.282 355.3 331.922 355.3C331.136 355.3 330.556 354.96 330.182 354.28C329.289 354.96 328.282 355.3 327.162 355.3C326.282 355.3 325.522 355.067 324.882 354.6C324.256 354.133 323.942 353.44 323.942 352.52ZM326.462 352.44C326.462 352.933 326.622 353.3 326.942 353.54C327.276 353.78 327.696 353.9 328.202 353.9C328.936 353.9 329.562 353.673 330.082 353.22V350.08C328.882 350.08 327.976 350.3 327.362 350.74C326.762 351.167 326.462 351.733 326.462 352.44ZM334.997 355V354.14L336.697 353.74V346.62H334.997V345.76L338.197 345H339.077V345.9C340.104 345.1 341.157 344.7 342.237 344.7C343.611 344.7 344.584 345.207 345.157 346.22C346.331 345.207 347.524 344.7 348.737 344.7C349.764 344.7 350.571 344.993 351.157 345.58C351.757 346.167 352.057 346.92 352.057 347.84V353.74L353.757 354.14V355H348.377V354.14L349.677 353.74V348.1C349.677 347.473 349.524 346.993 349.217 346.66C348.924 346.327 348.504 346.16 347.957 346.16C347.171 346.16 346.351 346.467 345.497 347.08C345.551 347.4 345.577 347.653 345.577 347.84V353.74L346.877 354.14V355H341.877V354.14L343.177 353.74V348.1C343.177 347.473 343.024 346.993 342.717 346.66C342.424 346.327 342.004 346.16 341.457 346.16C340.711 346.16 339.917 346.44 339.077 347V353.74L340.377 354.14V355H334.997ZM354.844 349.88C354.844 348.413 355.264 347.187 356.104 346.2C356.944 345.2 358.104 344.7 359.584 344.7C360.357 344.7 361.031 344.847 361.604 345.14C362.191 345.42 362.651 345.813 362.984 346.32C363.331 346.827 363.584 347.393 363.744 348.02C363.904 348.647 363.984 349.327 363.984 350.06H357.224C357.317 351.153 357.684 352.087 358.324 352.86C358.964 353.62 359.837 354 360.944 354C361.651 354 362.417 353.847 363.244 353.54L363.584 354.48C362.344 355.027 361.164 355.3 360.044 355.3C358.431 355.3 357.157 354.773 356.224 353.72C355.304 352.667 354.844 351.387 354.844 349.88ZM357.224 349.08L361.504 348.76C361.464 347.96 361.277 347.267 360.944 346.68C360.611 346.093 360.137 345.8 359.524 345.8C358.857 345.8 358.311 346.113 357.884 346.74C357.471 347.367 357.251 348.147 357.224 349.08ZM366.307 341H368.827L368.427 350.84H366.707L366.307 341ZM366.207 353.92C366.207 353.547 366.34 353.227 366.607 352.96C366.873 352.693 367.193 352.56 367.567 352.56C367.94 352.56 368.253 352.693 368.507 352.96C368.773 353.227 368.907 353.547 368.907 353.92C368.907 354.28 368.773 354.6 368.507 354.88C368.24 355.147 367.927 355.28 367.567 355.28C367.193 355.28 366.873 355.147 366.607 354.88C366.34 354.6 366.207 354.28 366.207 353.92Z" fill="black"/>
<path d="M112.849 388.088H116.865V389H111.729V377.816H112.849V388.088ZM126.368 384.184C126.368 384.568 126.357 384.861 126.336 385.064H119.088C119.12 385.725 119.28 386.291 119.568 386.76C119.856 387.229 120.234 387.587 120.704 387.832C121.173 388.067 121.685 388.184 122.24 388.184C122.965 388.184 123.573 388.008 124.064 387.656C124.565 387.304 124.896 386.829 125.056 386.232H126.24C126.026 387.085 125.568 387.784 124.864 388.328C124.17 388.861 123.296 389.128 122.24 389.128C121.418 389.128 120.682 388.947 120.032 388.584C119.381 388.211 118.869 387.688 118.496 387.016C118.133 386.333 117.952 385.539 117.952 384.632C117.952 383.725 118.133 382.931 118.496 382.248C118.858 381.565 119.365 381.043 120.016 380.68C120.666 380.317 121.408 380.136 122.24 380.136C123.072 380.136 123.797 380.317 124.416 380.68C125.045 381.043 125.525 381.533 125.856 382.152C126.197 382.76 126.368 383.437 126.368 384.184ZM125.232 384.152C125.242 383.501 125.109 382.947 124.832 382.488C124.565 382.029 124.197 381.683 123.728 381.448C123.258 381.213 122.746 381.096 122.192 381.096C121.36 381.096 120.65 381.363 120.064 381.896C119.477 382.429 119.152 383.181 119.088 384.152H125.232ZM129.873 381.208V386.632C129.873 387.165 129.974 387.533 130.177 387.736C130.379 387.939 130.737 388.04 131.249 388.04H132.273V389H131.073C130.283 389 129.697 388.819 129.313 388.456C128.929 388.083 128.737 387.475 128.737 386.632V381.208H127.521V380.264H128.737V378.072H129.873V380.264H132.273V381.208H129.873ZM146.078 380.264V389H144.958V387.464C144.702 388.008 144.308 388.424 143.774 388.712C143.241 389 142.644 389.144 141.982 389.144C140.937 389.144 140.084 388.824 139.422 388.184C138.761 387.533 138.43 386.595 138.43 385.368V380.264H139.534V385.24C139.534 386.189 139.769 386.915 140.238 387.416C140.718 387.917 141.369 388.168 142.19 388.168C143.033 388.168 143.705 387.901 144.206 387.368C144.708 386.835 144.958 386.051 144.958 385.016V380.264H146.078ZM151.643 389.128C150.641 389.128 149.819 388.899 149.179 388.44C148.55 387.971 148.198 387.336 148.123 386.536H149.275C149.329 387.027 149.558 387.427 149.963 387.736C150.379 388.035 150.934 388.184 151.627 388.184C152.235 388.184 152.71 388.04 153.051 387.752C153.403 387.464 153.579 387.107 153.579 386.68C153.579 386.381 153.483 386.136 153.291 385.944C153.099 385.752 152.854 385.603 152.555 385.496C152.267 385.379 151.873 385.256 151.371 385.128C150.721 384.957 150.193 384.787 149.787 384.616C149.382 384.445 149.035 384.195 148.747 383.864C148.47 383.523 148.331 383.069 148.331 382.504C148.331 382.077 148.459 381.683 148.715 381.32C148.971 380.957 149.334 380.669 149.803 380.456C150.273 380.243 150.806 380.136 151.403 380.136C152.342 380.136 153.099 380.376 153.675 380.856C154.251 381.325 154.561 381.976 154.603 382.808H153.483C153.451 382.296 153.249 381.885 152.875 381.576C152.513 381.256 152.011 381.096 151.371 381.096C150.806 381.096 150.347 381.229 149.995 381.496C149.643 381.763 149.467 382.093 149.467 382.488C149.467 382.829 149.569 383.112 149.771 383.336C149.985 383.549 150.246 383.72 150.555 383.848C150.865 383.965 151.281 384.099 151.803 384.248C152.433 384.419 152.934 384.584 153.307 384.744C153.681 384.904 154.001 385.139 154.267 385.448C154.534 385.757 154.673 386.168 154.683 386.68C154.683 387.149 154.555 387.571 154.299 387.944C154.043 388.307 153.686 388.595 153.227 388.808C152.769 389.021 152.241 389.128 151.643 389.128ZM164.846 380.136C165.668 380.136 166.382 380.328 166.99 380.712C167.598 381.096 168.036 381.581 168.302 382.168V380.264H169.422V389.224C169.422 390.024 169.246 390.733 168.894 391.352C168.553 391.971 168.073 392.445 167.454 392.776C166.836 393.117 166.132 393.288 165.342 393.288C164.222 393.288 163.289 393.021 162.542 392.488C161.806 391.955 161.348 391.229 161.166 390.312H162.27C162.462 390.92 162.825 391.405 163.358 391.768C163.902 392.131 164.564 392.312 165.342 392.312C165.908 392.312 166.414 392.189 166.862 391.944C167.31 391.709 167.662 391.357 167.918 390.888C168.174 390.419 168.302 389.864 168.302 389.224V387.064C168.025 387.661 167.582 388.157 166.974 388.552C166.377 388.936 165.668 389.128 164.846 389.128C164.046 389.128 163.326 388.941 162.686 388.568C162.057 388.195 161.561 387.667 161.198 386.984C160.846 386.301 160.67 385.512 160.67 384.616C160.67 383.72 160.846 382.936 161.198 382.264C161.561 381.581 162.057 381.059 162.686 380.696C163.326 380.323 164.046 380.136 164.846 380.136ZM168.302 384.632C168.302 383.928 168.158 383.309 167.87 382.776C167.582 382.243 167.188 381.832 166.686 381.544C166.196 381.256 165.652 381.112 165.054 381.112C164.436 381.112 163.881 381.251 163.39 381.528C162.9 381.805 162.51 382.211 162.222 382.744C161.945 383.267 161.806 383.891 161.806 384.616C161.806 385.331 161.945 385.96 162.222 386.504C162.51 387.037 162.9 387.448 163.39 387.736C163.881 388.013 164.436 388.152 165.054 388.152C165.652 388.152 166.196 388.008 166.686 387.72C167.188 387.432 167.582 387.021 167.87 386.488C168.158 385.955 168.302 385.336 168.302 384.632ZM179.883 384.184C179.883 384.568 179.873 384.861 179.851 385.064H172.603C172.635 385.725 172.795 386.291 173.083 386.76C173.371 387.229 173.75 387.587 174.219 387.832C174.689 388.067 175.201 388.184 175.755 388.184C176.481 388.184 177.089 388.008 177.579 387.656C178.081 387.304 178.411 386.829 178.571 386.232H179.755C179.542 387.085 179.083 387.784 178.379 388.328C177.686 388.861 176.811 389.128 175.755 389.128C174.934 389.128 174.198 388.947 173.547 388.584C172.897 388.211 172.385 387.688 172.011 387.016C171.649 386.333 171.467 385.539 171.467 384.632C171.467 383.725 171.649 382.931 172.011 382.248C172.374 381.565 172.881 381.043 173.531 380.68C174.182 380.317 174.923 380.136 175.755 380.136C176.587 380.136 177.313 380.317 177.931 380.68C178.561 381.043 179.041 381.533 179.371 382.152C179.713 382.76 179.883 383.437 179.883 384.184ZM178.747 384.152C178.758 383.501 178.625 382.947 178.347 382.488C178.081 382.029 177.713 381.683 177.243 381.448C176.774 381.213 176.262 381.096 175.707 381.096C174.875 381.096 174.166 381.363 173.579 381.896C172.993 382.429 172.667 383.181 172.603 384.152H178.747ZM183.388 381.208V386.632C183.388 387.165 183.49 387.533 183.692 387.736C183.895 387.939 184.252 388.04 184.764 388.04H185.788V389H184.588C183.799 389 183.212 388.819 182.828 388.456C182.444 388.083 182.252 387.475 182.252 386.632V381.208H181.036V380.264H182.252V378.072H183.388V380.264H185.788V381.208H183.388ZM193.482 381.208V386.632C193.482 387.165 193.583 387.533 193.786 387.736C193.989 387.939 194.346 388.04 194.858 388.04H195.882V389H194.682C193.893 389 193.306 388.819 192.922 388.456C192.538 388.083 192.346 387.475 192.346 386.632V381.208H191.13V380.264H192.346V378.072H193.482V380.264H195.882V381.208H193.482ZM201.553 389.128C200.732 389.128 199.991 388.947 199.329 388.584C198.679 388.211 198.161 387.688 197.777 387.016C197.404 386.333 197.217 385.539 197.217 384.632C197.217 383.725 197.409 382.936 197.793 382.264C198.177 381.581 198.7 381.059 199.361 380.696C200.023 380.323 200.764 380.136 201.585 380.136C202.407 380.136 203.148 380.323 203.809 380.696C204.481 381.059 205.004 381.581 205.377 382.264C205.761 382.936 205.953 383.725 205.953 384.632C205.953 385.528 205.761 386.317 205.377 387C204.993 387.683 204.465 388.211 203.793 388.584C203.121 388.947 202.375 389.128 201.553 389.128ZM201.553 388.152C202.129 388.152 202.663 388.024 203.153 387.768C203.644 387.501 204.039 387.107 204.337 386.584C204.647 386.051 204.801 385.4 204.801 384.632C204.801 383.864 204.652 383.219 204.353 382.696C204.055 382.163 203.66 381.768 203.169 381.512C202.679 381.245 202.145 381.112 201.569 381.112C200.993 381.112 200.46 381.245 199.969 381.512C199.479 381.768 199.084 382.163 198.785 382.696C198.497 383.219 198.353 383.864 198.353 384.632C198.353 385.4 198.497 386.051 198.785 386.584C199.084 387.107 199.473 387.501 199.953 387.768C200.444 388.024 200.977 388.152 201.553 388.152ZM217.105 389L213.505 385.08V389H212.385V377.16H213.505V384.168L217.025 380.264H218.593L214.449 384.616L218.625 389H217.105ZM224.169 380.104C225.214 380.104 226.068 380.429 226.729 381.08C227.39 381.72 227.721 382.653 227.721 383.88V389H226.617V384.008C226.617 383.059 226.377 382.333 225.897 381.832C225.428 381.331 224.782 381.08 223.961 381.08C223.118 381.08 222.446 381.347 221.945 381.88C221.444 382.413 221.193 383.197 221.193 384.232V389H220.073V380.264H221.193V381.752C221.47 381.219 221.87 380.813 222.393 380.536C222.916 380.248 223.508 380.104 224.169 380.104ZM234.022 389.128C233.201 389.128 232.459 388.947 231.798 388.584C231.147 388.211 230.63 387.688 230.246 387.016C229.873 386.333 229.686 385.539 229.686 384.632C229.686 383.725 229.878 382.936 230.262 382.264C230.646 381.581 231.169 381.059 231.83 380.696C232.491 380.323 233.233 380.136 234.054 380.136C234.875 380.136 235.617 380.323 236.278 380.696C236.95 381.059 237.473 381.581 237.846 382.264C238.23 382.936 238.422 383.725 238.422 384.632C238.422 385.528 238.23 386.317 237.846 387C237.462 387.683 236.934 388.211 236.262 388.584C235.59 388.947 234.843 389.128 234.022 389.128ZM234.022 388.152C234.598 388.152 235.131 388.024 235.622 387.768C236.113 387.501 236.507 387.107 236.806 386.584C237.115 386.051 237.27 385.4 237.27 384.632C237.27 383.864 237.121 383.219 236.822 382.696C236.523 382.163 236.129 381.768 235.638 381.512C235.147 381.245 234.614 381.112 234.038 381.112C233.462 381.112 232.929 381.245 232.438 381.512C231.947 381.768 231.553 382.163 231.254 382.696C230.966 383.219 230.822 383.864 230.822 384.632C230.822 385.4 230.966 386.051 231.254 386.584C231.553 387.107 231.942 387.501 232.422 387.768C232.913 388.024 233.446 388.152 234.022 388.152ZM251.984 380.264L249.248 389H248.128L245.712 381.672L243.296 389H242.16L239.424 380.264H240.56L242.736 387.864L245.184 380.264H246.304L248.72 387.88L250.88 380.264H251.984ZM265.101 380.264L259.917 393.112H258.749L260.445 388.952L256.861 380.264H258.093L261.069 387.72L263.949 380.264H265.101ZM270.444 389.128C269.623 389.128 268.881 388.947 268.22 388.584C267.569 388.211 267.052 387.688 266.668 387.016C266.295 386.333 266.108 385.539 266.108 384.632C266.108 383.725 266.3 382.936 266.684 382.264C267.068 381.581 267.591 381.059 268.252 380.696C268.913 380.323 269.655 380.136 270.476 380.136C271.297 380.136 272.039 380.323 272.7 380.696C273.372 381.059 273.895 381.581 274.268 382.264C274.652 382.936 274.844 383.725 274.844 384.632C274.844 385.528 274.652 386.317 274.268 387C273.884 387.683 273.356 388.211 272.684 388.584C272.012 388.947 271.265 389.128 270.444 389.128ZM270.444 388.152C271.02 388.152 271.553 388.024 272.044 387.768C272.535 387.501 272.929 387.107 273.228 386.584C273.537 386.051 273.692 385.4 273.692 384.632C273.692 383.864 273.543 383.219 273.244 382.696C272.945 382.163 272.551 381.768 272.06 381.512C271.569 381.245 271.036 381.112 270.46 381.112C269.884 381.112 269.351 381.245 268.86 381.512C268.369 381.768 267.975 382.163 267.676 382.696C267.388 383.219 267.244 383.864 267.244 384.632C267.244 385.4 267.388 386.051 267.676 386.584C267.975 387.107 268.364 387.501 268.844 387.768C269.335 388.024 269.868 388.152 270.444 388.152ZM284.453 380.264V389H283.333V387.464C283.077 388.008 282.683 388.424 282.149 388.712C281.616 389 281.019 389.144 280.357 389.144C279.312 389.144 278.459 388.824 277.797 388.184C277.136 387.533 276.805 386.595 276.805 385.368V380.264H277.909V385.24C277.909 386.189 278.144 386.915 278.613 387.416C279.093 387.917 279.744 388.168 280.565 388.168C281.408 388.168 282.08 387.901 282.581 387.368C283.083 386.835 283.333 386.051 283.333 385.016V380.264H284.453ZM292.505 382.2C292.793 381.592 293.236 381.096 293.833 380.712C294.441 380.328 295.156 380.136 295.977 380.136C296.777 380.136 297.492 380.323 298.121 380.696C298.75 381.059 299.241 381.581 299.593 382.264C299.956 382.936 300.137 383.72 300.137 384.616C300.137 385.512 299.956 386.301 299.593 386.984C299.241 387.667 298.745 388.195 298.105 388.568C297.476 388.941 296.766 389.128 295.977 389.128C295.145 389.128 294.425 388.941 293.817 388.568C293.22 388.184 292.782 387.688 292.505 387.08V389H291.401V377.16H292.505V382.2ZM299.001 384.616C299.001 383.891 298.857 383.267 298.569 382.744C298.292 382.211 297.908 381.805 297.417 381.528C296.926 381.251 296.372 381.112 295.753 381.112C295.156 381.112 294.606 381.256 294.105 381.544C293.614 381.832 293.225 382.243 292.937 382.776C292.649 383.309 292.505 383.928 292.505 384.632C292.505 385.336 292.649 385.955 292.937 386.488C293.225 387.021 293.614 387.432 294.105 387.72C294.606 388.008 295.156 388.152 295.753 388.152C296.372 388.152 296.926 388.013 297.417 387.736C297.908 387.448 298.292 387.037 298.569 386.504C298.857 385.96 299.001 385.331 299.001 384.616ZM310.102 384.184C310.102 384.568 310.091 384.861 310.07 385.064H302.822C302.854 385.725 303.014 386.291 303.302 386.76C303.59 387.229 303.969 387.587 304.438 387.832C304.907 388.067 305.419 388.184 305.974 388.184C306.699 388.184 307.307 388.008 307.798 387.656C308.299 387.304 308.63 386.829 308.79 386.232H309.974C309.761 387.085 309.302 387.784 308.598 388.328C307.905 388.861 307.03 389.128 305.974 389.128C305.153 389.128 304.417 388.947 303.766 388.584C303.115 388.211 302.603 387.688 302.23 387.016C301.867 386.333 301.686 385.539 301.686 384.632C301.686 383.725 301.867 382.931 302.23 382.248C302.593 381.565 303.099 381.043 303.75 380.68C304.401 380.317 305.142 380.136 305.974 380.136C306.806 380.136 307.531 380.317 308.15 380.68C308.779 381.043 309.259 381.533 309.59 382.152C309.931 382.76 310.102 383.437 310.102 384.184ZM308.966 384.152C308.977 383.501 308.843 382.947 308.566 382.488C308.299 382.029 307.931 381.683 307.462 381.448C306.993 381.213 306.481 381.096 305.926 381.096C305.094 381.096 304.385 381.363 303.798 381.896C303.211 382.429 302.886 383.181 302.822 384.152H308.966ZM313.607 381.208V386.632C313.607 387.165 313.708 387.533 313.911 387.736C314.114 387.939 314.471 388.04 314.983 388.04H316.007V389H314.807C314.018 389 313.431 388.819 313.047 388.456C312.663 388.083 312.471 387.475 312.471 386.632V381.208H311.255V380.264H312.471V378.072H313.607V380.264H316.007V381.208H313.607ZM319.31 381.208V386.632C319.31 387.165 319.412 387.533 319.614 387.736C319.817 387.939 320.174 388.04 320.686 388.04H321.71V389H320.51C319.721 389 319.134 388.819 318.75 388.456C318.366 388.083 318.174 387.475 318.174 386.632V381.208H316.958V380.264H318.174V378.072H319.31V380.264H321.71V381.208H319.31ZM331.461 384.184C331.461 384.568 331.451 384.861 331.429 385.064H324.181C324.213 385.725 324.373 386.291 324.661 386.76C324.949 387.229 325.328 387.587 325.797 387.832C326.267 388.067 326.779 388.184 327.333 388.184C328.059 388.184 328.667 388.008 329.157 387.656C329.659 387.304 329.989 386.829 330.149 386.232H331.333C331.12 387.085 330.661 387.784 329.957 388.328C329.264 388.861 328.389 389.128 327.333 389.128C326.512 389.128 325.776 388.947 325.125 388.584C324.475 388.211 323.963 387.688 323.589 387.016C323.227 386.333 323.045 385.539 323.045 384.632C323.045 383.725 323.227 382.931 323.589 382.248C323.952 381.565 324.459 381.043 325.109 380.68C325.76 380.317 326.501 380.136 327.333 380.136C328.165 380.136 328.891 380.317 329.509 380.68C330.139 381.043 330.619 381.533 330.949 382.152C331.291 382.76 331.461 383.437 331.461 384.184ZM330.325 384.152C330.336 383.501 330.203 382.947 329.925 382.488C329.659 382.029 329.291 381.683 328.821 381.448C328.352 381.213 327.84 381.096 327.285 381.096C326.453 381.096 325.744 381.363 325.157 381.896C324.571 382.429 324.245 383.181 324.181 384.152H330.325ZM334.63 381.816C334.876 381.272 335.249 380.851 335.75 380.552C336.262 380.253 336.886 380.104 337.622 380.104V381.272H337.318C336.508 381.272 335.857 381.491 335.366 381.928C334.876 382.365 334.63 383.096 334.63 384.12V389H333.51V380.264H334.63V381.816Z" fill="black"/>
<rect x="122.238" y="415" width="204" height="50" rx="10" fill="#2A0B9C"/>
<path d="M169.739 436.352V439.616H173.579V441.104H169.739V444.512H174.059V446H167.915V434.864H174.059V436.352H169.739ZM175.697 441.552C175.697 440.667 175.879 439.883 176.241 439.2C176.615 438.517 177.116 437.989 177.745 437.616C178.385 437.232 179.095 437.04 179.873 437.04C180.449 437.04 181.015 437.168 181.569 437.424C182.135 437.669 182.583 438 182.913 438.416V434.16H184.753V446H182.913V444.672C182.615 445.099 182.199 445.451 181.665 445.728C181.143 446.005 180.54 446.144 179.857 446.144C179.089 446.144 178.385 445.952 177.745 445.568C177.116 445.173 176.615 444.629 176.241 443.936C175.879 443.232 175.697 442.437 175.697 441.552ZM182.913 441.584C182.913 440.976 182.785 440.448 182.529 440C182.284 439.552 181.959 439.211 181.553 438.976C181.148 438.741 180.711 438.624 180.241 438.624C179.772 438.624 179.335 438.741 178.929 438.976C178.524 439.2 178.193 439.536 177.937 439.984C177.692 440.421 177.569 440.944 177.569 441.552C177.569 442.16 177.692 442.693 177.937 443.152C178.193 443.611 178.524 443.963 178.929 444.208C179.345 444.443 179.783 444.56 180.241 444.56C180.711 444.56 181.148 444.443 181.553 444.208C181.959 443.973 182.284 443.632 182.529 443.184C182.785 442.725 182.913 442.192 182.913 441.584ZM188.077 436.016C187.747 436.016 187.469 435.904 187.245 435.68C187.021 435.456 186.909 435.179 186.909 434.848C186.909 434.517 187.021 434.24 187.245 434.016C187.469 433.792 187.747 433.68 188.077 433.68C188.397 433.68 188.669 433.792 188.893 434.016C189.117 434.24 189.229 434.517 189.229 434.848C189.229 435.179 189.117 435.456 188.893 435.68C188.669 435.904 188.397 436.016 188.077 436.016ZM188.973 437.184V446H187.149V437.184H188.973ZM193.496 438.672V443.552C193.496 443.883 193.571 444.123 193.72 444.272C193.88 444.411 194.147 444.48 194.52 444.48H195.64V446H194.2C193.379 446 192.749 445.808 192.312 445.424C191.875 445.04 191.656 444.416 191.656 443.552V438.672H190.616V437.184H191.656V434.992H193.496V437.184H195.64V438.672H193.496ZM209.253 438.192C209.253 438.757 209.12 439.291 208.853 439.792C208.587 440.293 208.16 440.704 207.573 441.024C206.987 441.333 206.235 441.488 205.317 441.488H203.301V446H201.477V434.88H205.317C206.171 434.88 206.891 435.029 207.477 435.328C208.075 435.616 208.517 436.011 208.805 436.512C209.104 437.013 209.253 437.573 209.253 438.192ZM205.317 440C206.011 440 206.528 439.845 206.869 439.536C207.211 439.216 207.381 438.768 207.381 438.192C207.381 436.976 206.693 436.368 205.317 436.368H203.301V440H205.317ZM212.817 438.464C213.084 438.016 213.436 437.669 213.873 437.424C214.321 437.168 214.849 437.04 215.457 437.04V438.928H214.993C214.278 438.928 213.734 439.109 213.361 439.472C212.998 439.835 212.817 440.464 212.817 441.36V446H210.993V437.184H212.817V438.464ZM220.958 446.144C220.126 446.144 219.374 445.957 218.702 445.584C218.03 445.2 217.502 444.667 217.118 443.984C216.734 443.291 216.542 442.491 216.542 441.584C216.542 440.688 216.739 439.893 217.134 439.2C217.528 438.507 218.067 437.973 218.75 437.6C219.432 437.227 220.195 437.04 221.038 437.04C221.88 437.04 222.643 437.227 223.326 437.6C224.008 437.973 224.547 438.507 224.942 439.2C225.336 439.893 225.534 440.688 225.534 441.584C225.534 442.48 225.331 443.275 224.926 443.968C224.52 444.661 223.966 445.2 223.262 445.584C222.568 445.957 221.8 446.144 220.958 446.144ZM220.958 444.56C221.427 444.56 221.864 444.448 222.27 444.224C222.686 444 223.022 443.664 223.278 443.216C223.534 442.768 223.662 442.224 223.662 441.584C223.662 440.944 223.539 440.405 223.294 439.968C223.048 439.52 222.723 439.184 222.318 438.96C221.912 438.736 221.475 438.624 221.006 438.624C220.536 438.624 220.099 438.736 219.694 438.96C219.299 439.184 218.984 439.52 218.75 439.968C218.515 440.405 218.398 440.944 218.398 441.584C218.398 442.533 218.638 443.269 219.118 443.792C219.608 444.304 220.222 444.56 220.958 444.56ZM231.033 438.672H229.401V446H227.561V438.672H226.521V437.184H227.561V436.56C227.561 435.547 227.827 434.811 228.361 434.352C228.905 433.883 229.753 433.648 230.905 433.648V435.168C230.35 435.168 229.961 435.275 229.737 435.488C229.513 435.691 229.401 436.048 229.401 436.56V437.184H231.033V438.672ZM233.577 436.016C233.247 436.016 232.969 435.904 232.745 435.68C232.521 435.456 232.409 435.179 232.409 434.848C232.409 434.517 232.521 434.24 232.745 434.016C232.969 433.792 233.247 433.68 233.577 433.68C233.897 433.68 234.169 433.792 234.393 434.016C234.617 434.24 234.729 434.517 234.729 434.848C234.729 435.179 234.617 435.456 234.393 435.68C234.169 435.904 233.897 436.016 233.577 436.016ZM234.473 437.184V446H232.649V437.184H234.473ZM238.692 434.16V446H236.868V434.16H238.692ZM249.167 441.376C249.167 441.707 249.145 442.005 249.103 442.272H242.367C242.42 442.976 242.681 443.541 243.151 443.968C243.62 444.395 244.196 444.608 244.879 444.608C245.86 444.608 246.553 444.197 246.959 443.376H248.927C248.66 444.187 248.175 444.853 247.471 445.376C246.777 445.888 245.913 446.144 244.879 446.144C244.036 446.144 243.279 445.957 242.607 445.584C241.945 445.2 241.423 444.667 241.039 443.984C240.665 443.291 240.479 442.491 240.479 441.584C240.479 440.677 240.66 439.883 241.023 439.2C241.396 438.507 241.913 437.973 242.575 437.6C243.247 437.227 244.015 437.04 244.879 437.04C245.711 437.04 246.452 437.221 247.103 437.584C247.753 437.947 248.26 438.459 248.623 439.12C248.985 439.771 249.167 440.523 249.167 441.376ZM247.263 440.8C247.252 440.128 247.012 439.589 246.543 439.184C246.073 438.779 245.492 438.576 244.799 438.576C244.169 438.576 243.631 438.779 243.183 439.184C242.735 439.579 242.468 440.117 242.383 440.8H247.263Z" fill="white"/>
<path d="M261.238 440H279.238" stroke="white" stroke-width="2" stroke-linecap="round" stroke-linejoin="round"/>
<path d="M274.238 435L279.238 440L274.238 445" stroke="white" stroke-width="2" stroke-linecap="round" stroke-linejoin="round"/>
</svg>
