<svg width="141" height="35" viewBox="0 0 141 35" fill="none" xmlns="http://www.w3.org/2000/svg">
<path d="M33.0743 32.4647V30.924L35.6658 30.3187V15.3519L33.0743 14.7467V13.206H41.525C44.9429 13.206 47.5532 14.0955 49.356 15.8747C51.1776 17.6355 52.0884 19.9557 52.0884 22.8353C52.0884 25.8984 51.1307 28.2736 49.2152 29.961C47.2997 31.6301 44.7363 32.4647 41.525 32.4647H33.0743ZM40.2574 30.3462H41.1025C43.1494 30.3462 44.7081 29.6951 45.7786 28.3928C46.8678 27.0906 47.4124 25.2381 47.4124 22.8353C47.4124 20.4142 46.8678 18.5617 45.7786 17.2778C44.7081 15.9755 43.1494 15.3244 41.1025 15.3244H40.2574V30.3462Z" fill="#705897"/>
<path d="M54.285 25.4215C54.285 23.2572 54.9047 21.5331 56.1441 20.2491C57.4024 18.9469 59.1019 18.2958 61.2428 18.2958C63.4212 18.2958 65.0644 19.0203 66.1724 20.4692C67.2991 21.9182 67.8625 23.7065 67.8625 25.8342H58.623C58.7545 27.1914 59.2521 28.3653 60.116 29.3557C60.9798 30.3279 62.0878 30.8139 63.44 30.8139C64.454 30.8139 65.5433 30.603 66.7076 30.1811L67.2991 31.7493C65.5526 32.5013 63.8437 32.8773 62.1723 32.8773C59.7498 32.8773 57.8249 32.1895 56.3977 30.8139C54.9892 29.4199 54.285 27.6225 54.285 25.4215ZM58.623 24.1284L63.3836 23.8258C63.3836 23.3856 63.3554 22.982 63.2991 22.6152C63.2428 22.23 63.0831 21.7715 62.8202 21.2396C62.3507 20.4692 61.7967 20.0841 61.1582 20.0841C60.4071 20.0841 59.7874 20.4601 59.2991 21.2121C59.0174 21.6706 58.8296 22.175 58.7357 22.7253C58.6418 23.2755 58.6042 23.7432 58.623 24.1284Z" fill="#705897"/>
<path d="M68.142 12.9583V11.5002L72.6491 10.4547H74.8744V19.6989C76.0387 18.7635 77.3909 18.2958 78.9308 18.2958C80.6773 18.2958 82.0857 18.8643 83.1562 20.0015C84.2454 21.1204 84.79 22.8078 84.79 25.0638C84.79 26.7329 84.3486 28.1727 83.466 29.3833C82.6022 30.5938 81.5223 31.4834 80.2266 32.052C78.9496 32.6022 77.5693 32.8773 76.0857 32.8773C73.9448 32.8773 72.0951 32.4096 70.5364 31.4742V12.9583H68.142ZM74.8744 31.0065C75.0998 31.0432 75.419 31.0615 75.8322 31.0615C77.1092 31.0615 78.1702 30.5571 79.0153 29.5483C79.8791 28.5395 80.3111 27.0814 80.3111 25.1739C80.3111 22.1475 79.3627 20.6343 77.466 20.6343C76.7336 20.6343 75.8697 20.9094 74.8744 21.4597V31.0065Z" fill="#705897"/>
<path d="M86.5758 20.6343V19.5338L91.3646 16.2048H92.4069V18.846L95.8998 18.7084V20.6343H92.4069V28.5029C92.4069 29.4016 92.5101 30.0344 92.7167 30.4012C92.9233 30.7681 93.3458 30.9515 93.9843 30.9515C94.4538 30.9515 95.0829 30.7864 95.8717 30.4562L96.3224 31.9969C95.1956 32.5839 94.0031 32.8773 92.7449 32.8773C89.6275 32.8773 88.0688 31.465 88.0688 28.6404V20.6343H86.5758Z" fill="#705897"/>
<path d="M97.3626 32.4647V30.924L99.9542 30.3187V15.3519L97.3626 14.7467V13.206H112.18V18.846H110.602L109.475 15.3244H104.546V21.6523L109.785 21.2396V23.9633L104.546 23.5781V30.3187L107.701 30.924V32.4647H97.3626Z" fill="#705897"/>
<path d="M113.673 32.4647V31.0065L116.068 30.4562V21.2121H113.673V19.7539L118.181 18.7084H120.406V30.4562L122.8 31.0065V32.4647H113.673ZM115.617 14.4715C115.617 13.7562 115.871 13.1601 116.378 12.6832C116.885 12.188 117.504 11.9404 118.237 11.9404C118.988 11.9404 119.608 12.188 120.096 12.6832C120.603 13.1601 120.857 13.7562 120.857 14.4715C120.857 15.2052 120.603 15.8196 120.096 16.3149C119.608 16.8101 118.988 17.0577 118.237 17.0577C117.504 17.0577 116.885 16.8101 116.378 16.3149C115.871 15.8196 115.617 15.2052 115.617 14.4715Z" fill="#705897"/>
<path d="M123.48 32.4647V31.0065L125.931 30.5388L129.677 26.1918L126.072 20.6343L123.846 20.1666V18.7084H132.72V20.1666L131.255 20.4417L133.086 23.2205L135.339 20.6068L133.79 20.1666V18.7084H140.1V20.1666L137.649 20.6893L134.1 24.7887L137.875 30.5938L140.185 31.0065V32.4647H131.086V31.0065L132.607 30.7864L130.692 27.76L128.213 30.6213L129.706 31.0065V32.4647H123.48Z" fill="#705897"/>
<path fill-rule="evenodd" clip-rule="evenodd" d="M4.841 14.8486L13.8626 23.0883C13.8626 23.0883 24.5545 8.97421 38.4209 0L39.872 3.18406C39.872 3.18406 26.8101 13.9511 16.285 35L0.998535 18.683L4.841 14.8486Z" fill="#705897"/>
</svg>
