<svg width="199" height="50" viewBox="0 0 199 50" fill="none" xmlns="http://www.w3.org/2000/svg">
<path d="M45.8225 46.3781V44.1771L49.5247 43.3124V21.9313L45.8225 21.0667V18.8657H57.895C62.7776 18.8657 66.5067 20.1365 69.0822 22.6781C71.6844 25.1935 72.9856 28.5081 72.9856 32.6219C72.9856 36.9977 71.6174 40.3908 68.881 42.8015C66.1445 45.1859 62.4825 46.3781 57.895 46.3781H45.8225ZM56.0841 43.3517H57.2914C60.2156 43.3517 62.4423 42.4215 63.9715 40.5612C65.5275 38.7008 66.3055 36.0544 66.3055 32.6219C66.3055 29.1632 65.5275 26.5167 63.9715 24.6826C62.4423 22.8222 60.2156 21.892 57.2914 21.892H56.0841V43.3517Z" fill="#3A1C6B"/>
<path d="M76.1235 36.3164C76.1235 33.2245 77.0088 30.7615 78.7794 28.9273C80.5769 27.067 83.0048 26.1368 86.0632 26.1368C89.1752 26.1368 91.5226 27.1718 93.1055 29.2418C94.7151 31.3118 95.52 33.8665 95.52 36.9059H82.3207C82.5085 38.8449 83.2194 40.5219 84.4535 41.9368C85.6876 43.3255 87.2704 44.0199 89.202 44.0199C90.6507 44.0199 92.2067 43.7185 93.8701 43.1159L94.7151 45.3562C92.2202 46.4305 89.7788 46.9676 87.3912 46.9676C83.9304 46.9676 81.1805 45.985 79.1416 44.0199C77.1295 42.0285 76.1235 39.4607 76.1235 36.3164ZM82.3207 34.4691L89.1215 34.0368C89.1215 33.4079 89.0813 32.8315 89.0008 32.3074C88.9203 31.7572 88.6923 31.1021 88.3167 30.3423C87.646 29.2418 86.8546 28.6915 85.9425 28.6915C84.8693 28.6915 83.984 29.2287 83.2865 30.303C82.8841 30.958 82.6158 31.6786 82.4817 32.4646C82.3475 33.2507 82.2939 33.9189 82.3207 34.4691Z" fill="#3A1C6B"/>
<path d="M95.9192 18.5119V16.4288L102.358 14.9353H105.537V28.1413C107.2 26.805 109.132 26.1368 111.332 26.1368C113.827 26.1368 115.839 26.9491 117.368 28.5736C118.924 30.172 119.702 32.5826 119.702 35.8054C119.702 38.1899 119.072 40.2467 117.811 41.9761C116.577 43.7054 115.034 44.9762 113.183 45.7885C111.359 46.5746 109.387 46.9676 107.267 46.9676C104.209 46.9676 101.566 46.2995 99.3398 44.9632V18.5119H95.9192ZM105.537 44.295C105.859 44.3474 106.315 44.3736 106.905 44.3736C108.729 44.3736 110.245 43.653 111.453 42.2119C112.687 40.7708 113.304 38.6877 113.304 35.9627C113.304 31.6393 111.949 29.4776 109.239 29.4776C108.193 29.4776 106.959 29.8706 105.537 30.6567V44.295Z" fill="#3A1C6B"/>
<path d="M122.253 29.4776V27.9055L129.094 23.1497H130.583V26.9229L135.573 26.7263V29.4776H130.583V40.7184C130.583 42.0023 130.731 42.9063 131.026 43.4303C131.321 43.9544 131.925 44.2164 132.837 44.2164C133.508 44.2164 134.406 43.9806 135.533 43.5089L136.177 45.7099C134.567 46.5484 132.864 46.9676 131.066 46.9676C126.613 46.9676 124.386 44.95 124.386 40.9149V29.4776H122.253Z" fill="#3A1C6B"/>
<path d="M137.663 46.3781V44.1771L141.365 43.3124V21.9313L137.663 21.0667V18.8657H158.83V26.9229H156.577L154.967 21.892H147.925V30.9318L155.41 30.3423V34.2333L147.925 33.6831V43.3124L152.432 44.1771V46.3781H137.663Z" fill="#3A1C6B"/>
<path d="M160.964 46.3781V44.295L164.385 43.5089V30.303H160.964V28.2199L167.403 26.7263H170.582V43.5089L174.002 44.295V46.3781H160.964ZM163.741 20.6736C163.741 19.6517 164.103 18.8002 164.827 18.1189C165.552 17.4114 166.437 17.0577 167.483 17.0577C168.556 17.0577 169.442 17.4114 170.139 18.1189C170.864 18.8002 171.226 19.6517 171.226 20.6736C171.226 21.7217 170.864 22.5995 170.139 23.3069C169.442 24.0144 168.556 24.3681 167.483 24.3681C166.437 24.3681 165.552 24.0144 164.827 23.3069C164.103 22.5995 163.741 21.7217 163.741 20.6736Z" fill="#3A1C6B"/>
<path d="M174.974 46.3781V44.295L178.475 43.6268L183.827 37.4169L178.676 29.4776L175.497 28.8094V26.7263H188.173V28.8094L186.081 29.2025L188.696 33.1721L191.916 29.4383L189.702 28.8094V26.7263H198.716V28.8094L195.215 29.5562L190.145 35.4124L195.537 43.7054L198.837 44.295V46.3781H185.839V44.295L188.012 43.9806L185.276 39.6572L181.735 43.7447L183.867 44.295V46.3781H174.974Z" fill="#3A1C6B"/>
<path fill-rule="evenodd" clip-rule="evenodd" d="M5.48924 21.2123L18.3772 32.9832C18.3772 32.9832 33.6514 12.8203 53.4605 0L55.5335 4.54866C55.5335 4.54866 36.8736 19.9302 21.8378 50L0 26.6899L5.48924 21.2123Z" fill="#3A1C6B"/>
</svg>
